<svg width="21" height="20" viewBox="0 0 21 20" fill="none" xmlns="http://www.w3.org/2000/svg">
<path d="M10.5 1.875C6.01289 1.875 2.375 5.51289 2.375 10C2.375 14.4871 6.01289 18.125 10.5 18.125C14.9871 18.125 18.625 14.4871 18.625 10C18.625 5.51289 14.9871 1.875 10.5 1.875Z" stroke="#535353" stroke-miterlimit="10"/>
<path d="M10.4998 1.875C8.23145 1.875 6.09863 5.51289 6.09863 10C6.09863 14.4871 8.23145 18.125 10.4998 18.125C12.7682 18.125 14.901 14.4871 14.901 10C14.901 5.51289 12.7682 1.875 10.4998 1.875Z" stroke="#535353" stroke-miterlimit="10"/>
<path d="M5.08301 4.58325C6.57676 5.6438 8.45723 6.27622 10.4998 6.27622C12.5424 6.27622 14.4229 5.6438 15.9166 4.58325M15.9166 15.4168C14.4229 14.3563 12.5424 13.7239 10.4998 13.7239C8.45723 13.7239 6.57676 14.3563 5.08301 15.4168" stroke="#535353" stroke-linecap="round" stroke-linejoin="round"/>
<path d="M10.5 1.875V18.125M18.625 10H2.375" stroke="#535353" stroke-miterlimit="10"/>
</svg>
