<svg width="25" height="24" viewBox="0 0 25 24" fill="none" xmlns="http://www.w3.org/2000/svg">
<path d="M19.3439 7.875C19.2065 9.78141 17.7923 11.25 16.2501 11.25C14.7079 11.25 13.2914 9.78188 13.1564 7.875C13.0157 5.89172 14.3925 4.5 16.2501 4.5C18.1078 4.5 19.4845 5.92781 19.3439 7.875Z" stroke="#535353" stroke-linecap="round" stroke-linejoin="round"/>
<path d="M16.2498 14.25C13.195 14.25 10.2573 15.7673 9.52138 18.7223C9.42388 19.1133 9.66903 19.5 10.0708 19.5H22.4293C22.8311 19.5 23.0748 19.1133 22.9787 18.7223C22.2428 15.72 19.3051 14.25 16.2498 14.25Z" stroke="#535353" stroke-miterlimit="10"/>
<path d="M9.87496 8.71594C9.76527 10.2384 8.62246 11.4375 7.39058 11.4375C6.15871 11.4375 5.01402 10.2389 4.90621 8.71594C4.79418 7.13203 5.90652 6 7.39058 6C8.87465 6 9.98699 7.16109 9.87496 8.71594Z" stroke="#535353" stroke-linecap="round" stroke-linejoin="round"/>
<path d="M10.1567 14.3438C9.31061 13.9562 8.37874 13.8071 7.39108 13.8071C4.95358 13.8071 2.60515 15.0188 2.01686 17.379C1.93952 17.6912 2.13546 18.0001 2.45608 18.0001H7.71921" stroke="#535353" stroke-miterlimit="10" stroke-linecap="round"/>
</svg>
