<svg width="209" height="33" viewBox="0 0 209 33" fill="none" xmlns="http://www.w3.org/2000/svg">
<path d="M54.3 25C53.5533 25 53.02 24.8533 52.7 24.56C52.38 24.2667 52.22 23.8467 52.22 23.3C52.22 23.0067 52.2467 22.4867 52.3 21.74C52.3533 20.9933 52.4133 20.1533 52.48 19.22H48.92L48.52 24.7C48.5067 24.8067 48.48 24.8867 48.44 24.94C48.4 24.98 48.32 25 48.2 25H47.1C46.3533 25 45.82 24.8533 45.5 24.56C45.18 24.2667 45.02 23.8467 45.02 23.3C45.02 23.0333 45.04 22.58 45.08 21.94C45.12 21.2867 45.1733 20.5467 45.24 19.72C45.3067 18.8933 45.3733 18.02 45.44 17.1C45.5067 16.18 45.5733 15.3133 45.64 14.5C45.7067 13.6867 45.76 12.9733 45.8 12.36C45.84 11.7467 45.86 11.3267 45.86 11.1C45.86 10.9 45.9667 10.8 46.18 10.8H47.28C48.0933 10.8 48.64 10.9733 48.92 11.32C49.2 11.6667 49.34 12.18 49.34 12.86C49.34 12.9667 49.32 13.3467 49.28 14C49.24 14.64 49.1867 15.4133 49.12 16.32H52.7C52.74 15.7333 52.78 15.16 52.82 14.6C52.8733 14.04 52.9133 13.5267 52.94 13.06C52.98 12.5933 53.0067 12.1933 53.02 11.86C53.0467 11.5133 53.06 11.26 53.06 11.1C53.06 10.9 53.1667 10.8 53.38 10.8H54.48C55.2933 10.8 55.84 10.9733 56.12 11.32C56.4 11.6667 56.54 12.18 56.54 12.86C56.54 12.9267 56.5267 13.14 56.5 13.5C56.4867 13.86 56.46 14.3133 56.42 14.86C56.38 15.4067 56.3333 16.02 56.28 16.7C56.24 17.3667 56.1933 18.0533 56.14 18.76C56.1 19.4667 56.0533 20.16 56 20.84C55.96 21.5067 55.92 22.1133 55.88 22.66C55.84 23.2067 55.8067 23.6667 55.78 24.04C55.7533 24.4 55.7333 24.62 55.72 24.7C55.7067 24.8067 55.68 24.8867 55.64 24.94C55.6 24.98 55.52 25 55.4 25H54.3ZM57.6966 22.54C57.6966 21.34 58.2366 20.4 59.3166 19.72C60.3966 19.04 61.9899 18.6733 64.0966 18.62C64.1099 18.4733 64.1166 18.3533 64.1166 18.26C64.1299 18.1533 64.1366 18.0267 64.1366 17.88C64.1366 17.4533 64.0566 17.1133 63.8966 16.86C63.7366 16.6067 63.4032 16.48 62.8966 16.48C62.6166 16.48 62.3899 16.52 62.2166 16.6C62.0432 16.68 61.9032 16.7933 61.7966 16.94C61.6899 17.0733 61.6032 17.24 61.5366 17.44C61.4699 17.64 61.4099 17.86 61.3566 18.1C61.3299 18.22 61.2699 18.3 61.1766 18.34C61.0832 18.3667 60.9366 18.38 60.7366 18.38C59.3766 18.38 58.6966 17.8667 58.6966 16.84C58.6966 16.4267 58.7899 16.0333 58.9766 15.66C59.1766 15.2867 59.4632 14.9667 59.8366 14.7C60.2232 14.42 60.7032 14.2 61.2766 14.04C61.8499 13.88 62.5166 13.8 63.2766 13.8C64.7566 13.8 65.8299 14.1067 66.4966 14.72C67.1632 15.3333 67.4966 16.2 67.4966 17.32C67.4966 17.4667 67.4766 17.7333 67.4366 18.12C67.4099 18.4933 67.3699 18.8933 67.3166 19.32C67.2766 19.7333 67.2366 20.1267 67.1966 20.5C67.1699 20.8733 67.1566 21.1333 67.1566 21.28C67.1566 21.6133 67.2166 21.8533 67.3366 22C67.4566 22.1333 67.5899 22.2267 67.7366 22.28C67.8966 22.3333 68.0366 22.3733 68.1566 22.4C68.2766 22.4267 68.3366 22.4933 68.3366 22.6C68.3366 22.8933 68.2966 23.1933 68.2166 23.5C68.1366 23.8067 68.0032 24.0867 67.8166 24.34C67.6432 24.5933 67.3966 24.8 67.0766 24.96C66.7699 25.12 66.3899 25.2 65.9366 25.2C65.2966 25.2 64.8166 25.0467 64.4966 24.74C64.1766 24.4333 63.9632 24.0067 63.8566 23.46C63.5366 23.9267 63.1166 24.3333 62.5966 24.68C62.0899 25.0267 61.4232 25.2 60.5966 25.2C60.1966 25.2 59.8166 25.1533 59.4566 25.06C59.1099 24.9667 58.8032 24.8133 58.5366 24.6C58.2832 24.3867 58.0766 24.1133 57.9166 23.78C57.7699 23.4333 57.6966 23.02 57.6966 22.54ZM63.9166 20.26C63.5699 20.26 63.2299 20.2867 62.8966 20.34C62.5632 20.3933 62.2632 20.48 61.9966 20.6C61.7432 20.7067 61.5366 20.8533 61.3766 21.04C61.2166 21.2267 61.1366 21.4533 61.1366 21.72C61.1366 22.0267 61.2299 22.24 61.4166 22.36C61.6166 22.48 61.8299 22.54 62.0566 22.54C62.2699 22.54 62.4832 22.4933 62.6966 22.4C62.9099 22.3067 63.0966 22.1667 63.2566 21.98C63.4299 21.78 63.5766 21.54 63.6966 21.26C63.8166 20.98 63.8899 20.6467 63.9166 20.26ZM76.3861 23.24C76.3861 22.9467 76.4061 22.5667 76.4461 22.1C76.4994 21.62 76.5461 21.12 76.5861 20.6C76.6394 20.0667 76.6861 19.5533 76.7261 19.06C76.7794 18.5667 76.8061 18.1533 76.8061 17.82C76.8061 17.4733 76.7194 17.1667 76.5461 16.9C76.3861 16.62 76.0661 16.48 75.5861 16.48C75.1194 16.48 74.7328 16.5933 74.4261 16.82C74.1194 17.0467 73.8594 17.46 73.6461 18.06C73.4461 18.66 73.2794 19.4867 73.1461 20.54C73.0128 21.5933 72.8861 22.9467 72.7661 24.6C72.7528 24.76 72.7194 24.8667 72.6661 24.92C72.6128 24.9733 72.4994 25 72.3261 25H71.6061C71.1928 25 70.8528 24.96 70.5861 24.88C70.3328 24.7867 70.1261 24.66 69.9661 24.5C69.8194 24.34 69.7128 24.1467 69.6461 23.92C69.5928 23.68 69.5661 23.4067 69.5661 23.1C69.5661 22.9 69.5728 22.62 69.5861 22.26C69.6128 21.8867 69.6528 21.38 69.7061 20.74C69.7594 20.0867 69.8194 19.2667 69.8861 18.28C69.9661 17.28 70.0594 16.0467 70.1661 14.58C70.1794 14.2867 70.2128 14.1133 70.2661 14.06C70.3061 14.02 70.4128 14 70.5861 14H71.3661C71.7661 14 72.0928 14.0467 72.3461 14.14C72.6128 14.2333 72.8261 14.36 72.9861 14.52C73.1461 14.6667 73.2594 14.8467 73.3261 15.06C73.3928 15.26 73.4328 15.4667 73.4461 15.68C73.8594 14.9733 74.3328 14.4867 74.8661 14.22C75.3994 13.94 76.0661 13.8 76.8661 13.8C77.4261 13.8 77.9128 13.86 78.3261 13.98C78.7394 14.1 79.0794 14.3067 79.3461 14.6C79.6261 14.88 79.8328 15.2533 79.9661 15.72C80.0994 16.1733 80.1661 16.74 80.1661 17.42C80.1661 17.6333 80.1528 17.94 80.1261 18.34C80.0994 18.74 80.0661 19.18 80.0261 19.66C79.9861 20.1267 79.9394 20.62 79.8861 21.14C79.8461 21.6467 79.8061 22.12 79.7661 22.56C79.7261 23 79.6928 23.3867 79.6661 23.72C79.6394 24.0533 79.6261 24.2733 79.6261 24.38C79.6261 24.6733 79.5928 24.8533 79.5261 24.92C79.4594 24.9733 79.3128 25 79.0861 25H78.4461C78.0194 25 77.6728 24.96 77.4061 24.88C77.1394 24.8 76.9328 24.6867 76.7861 24.54C76.6394 24.3933 76.5328 24.2133 76.4661 24C76.4128 23.7733 76.3861 23.52 76.3861 23.24ZM90.5458 16.7C90.5058 17.2067 90.4591 17.7067 90.4058 18.2C90.3658 18.6933 90.3258 19.16 90.2858 19.6C90.2458 20.04 90.2124 20.4333 90.1858 20.78C90.1724 21.1267 90.1658 21.3933 90.1658 21.58C90.1658 21.9267 90.2058 22.16 90.2858 22.28C90.3658 22.3867 90.4991 22.44 90.6858 22.44C90.8324 22.44 90.9591 22.4133 91.0658 22.36C91.1724 22.3067 91.2724 22.2467 91.3658 22.18C91.4591 22.1133 91.5391 22.0533 91.6058 22C91.6858 21.9467 91.7724 21.92 91.8658 21.92C91.9591 21.92 92.0458 21.9733 92.1258 22.08C92.2058 22.1867 92.2458 22.4333 92.2458 22.82C92.2458 23.5533 92.0458 24.1333 91.6458 24.56C91.2458 24.9867 90.5591 25.2 89.5858 25.2C88.6258 25.2 87.9124 24.98 87.4458 24.54C86.9924 24.0867 86.7658 23.4 86.7658 22.48C86.7658 22.28 86.7724 22.0467 86.7858 21.78C86.8124 21.5 86.8458 21.14 86.8858 20.7C86.9258 20.26 86.9724 19.72 87.0258 19.08C87.0924 18.44 87.1591 17.6467 87.2258 16.7H86.1658C86.0591 16.7 85.9924 16.68 85.9658 16.64C85.9524 16.5867 85.9458 16.5133 85.9458 16.42L86.0058 15.4C86.0191 15.2267 86.0391 15.06 86.0658 14.9C86.1058 14.7267 86.1724 14.5733 86.2658 14.44C86.3724 14.3067 86.5191 14.2 86.7058 14.12C86.8924 14.04 87.1391 14 87.4458 14C87.5391 13.76 87.6458 13.4733 87.7658 13.14C87.8858 12.8067 88.0058 12.4867 88.1258 12.18C88.2458 11.86 88.3591 11.5933 88.4658 11.38C88.5858 11.1667 88.6924 11.06 88.7858 11.06H89.3658C89.9258 11.06 90.3124 11.2333 90.5258 11.58C90.7391 11.9267 90.8458 12.34 90.8458 12.82C90.8458 13.0867 90.8258 13.48 90.7858 14H92.8858C93.0991 14 93.2058 14.0933 93.2058 14.28L93.1258 15.36C93.0991 15.76 92.9858 16.0867 92.7858 16.34C92.5991 16.58 92.2058 16.7 91.6058 16.7H90.5458ZM98.5773 25.2C97.6573 25.2 96.8907 25.0733 96.2773 24.82C95.6773 24.5533 95.1973 24.1933 94.8373 23.74C94.4773 23.2867 94.224 22.76 94.0773 22.16C93.9307 21.5467 93.8573 20.8933 93.8573 20.2C93.8573 19.4 93.9507 18.62 94.1373 17.86C94.3373 17.0867 94.6707 16.4 95.1373 15.8C95.604 15.2 96.2173 14.72 96.9773 14.36C97.7507 13.9867 98.7107 13.8 99.8573 13.8C101.537 13.8 102.737 14.2133 103.457 15.04C104.191 15.8533 104.557 17 104.557 18.48C104.557 18.8933 104.524 19.3533 104.457 19.86C104.404 20.3533 104.291 20.8467 104.117 21.34C103.957 21.8333 103.731 22.3133 103.437 22.78C103.157 23.2467 102.797 23.66 102.357 24.02C101.917 24.38 101.384 24.6667 100.757 24.88C100.144 25.0933 99.4173 25.2 98.5773 25.2ZM99.5173 16.46C99.0107 16.46 98.604 16.5933 98.2973 16.86C98.004 17.1133 97.7773 17.4267 97.6173 17.8C97.4707 18.16 97.3707 18.5467 97.3173 18.96C97.2773 19.36 97.2573 19.7 97.2573 19.98C97.2573 20.86 97.3973 21.5067 97.6773 21.92C97.9573 22.3333 98.3573 22.54 98.8773 22.54C99.344 22.54 99.724 22.3933 100.017 22.1C100.324 21.8067 100.557 21.4533 100.717 21.04C100.891 20.6267 101.004 20.1933 101.057 19.74C101.124 19.2867 101.157 18.9067 101.157 18.6C101.157 17.9333 101.031 17.4133 100.777 17.04C100.537 16.6533 100.117 16.46 99.5173 16.46ZM109.87 15.7C109.87 15.98 109.844 16.3733 109.79 16.88C109.75 17.3867 109.704 17.9133 109.65 18.46C109.61 19.0067 109.564 19.52 109.51 20C109.47 20.48 109.45 20.8267 109.45 21.04C109.45 21.5067 109.564 21.8733 109.79 22.14C110.03 22.3933 110.357 22.52 110.77 22.52C111.13 22.52 111.43 22.38 111.67 22.1C111.924 21.8067 112.124 21.4333 112.27 20.98C112.43 20.5133 112.557 19.9867 112.65 19.4C112.744 18.8133 112.81 18.22 112.85 17.62C112.904 17.02 112.944 16.44 112.97 15.88C113.01 15.3067 113.05 14.8133 113.09 14.4C113.104 14.2933 113.144 14.2 113.21 14.12C113.277 14.04 113.384 14 113.53 14H114.25C114.664 14 114.997 14.0467 115.25 14.14C115.517 14.22 115.724 14.34 115.87 14.5C116.03 14.66 116.137 14.86 116.19 15.1C116.257 15.3267 116.29 15.5933 116.29 15.9C116.29 16.1 116.277 16.3867 116.25 16.76C116.237 17.12 116.204 17.6267 116.15 18.28C116.097 18.92 116.03 19.74 115.95 20.74C115.884 21.7267 115.797 22.9533 115.69 24.42C115.664 24.7 115.63 24.8667 115.59 24.92C115.564 24.9733 115.457 25 115.27 25H114.49C114.09 25 113.757 24.9533 113.49 24.86C113.237 24.7667 113.03 24.6467 112.87 24.5C112.71 24.3533 112.597 24.18 112.53 23.98C112.464 23.78 112.424 23.5733 112.41 23.36C112.21 23.7067 111.984 24 111.73 24.24C111.49 24.48 111.237 24.6733 110.97 24.82C110.704 24.9533 110.43 25.0467 110.15 25.1C109.87 25.1667 109.597 25.2 109.33 25.2C108.824 25.2 108.37 25.12 107.97 24.96C107.57 24.7867 107.23 24.56 106.95 24.28C106.684 24 106.477 23.6667 106.33 23.28C106.184 22.8933 106.11 22.48 106.11 22.04C106.11 21.8667 106.117 21.5867 106.13 21.2C106.157 20.8 106.184 20.3533 106.21 19.86C106.25 19.3667 106.29 18.8467 106.33 18.3C106.37 17.74 106.404 17.2133 106.43 16.72C106.47 16.2267 106.504 15.7933 106.53 15.42C106.57 15.0467 106.597 14.78 106.61 14.62C106.637 14.38 106.69 14.22 106.77 14.14C106.85 14.0467 106.984 14 107.17 14H107.81C108.224 14 108.564 14.04 108.83 14.12C109.097 14.2 109.304 14.3133 109.45 14.46C109.61 14.6067 109.717 14.7867 109.77 15C109.837 15.2 109.87 15.4333 109.87 15.7ZM124.503 18.78C124.423 18.78 124.329 18.78 124.223 18.78C124.129 18.7667 124.036 18.7533 123.943 18.74C123.849 18.7133 123.769 18.6867 123.703 18.66C123.636 18.62 123.603 18.5733 123.603 18.52C123.603 18.3467 123.609 18.1867 123.623 18.04C123.636 17.8933 123.643 17.74 123.643 17.58C123.643 17.2867 123.603 17.0467 123.523 16.86C123.443 16.6733 123.283 16.58 123.043 16.58C122.669 16.58 122.356 16.8267 122.103 17.32C121.863 17.8 121.709 18.5267 121.643 19.5C121.616 19.9267 121.576 20.4133 121.523 20.96C121.483 21.4933 121.443 22.0133 121.403 22.52C121.363 23.0133 121.329 23.4533 121.303 23.84C121.276 24.2267 121.263 24.48 121.263 24.6C121.263 24.7333 121.216 24.8333 121.123 24.9C121.029 24.9667 120.929 25 120.823 25H120.103C119.689 25 119.349 24.96 119.083 24.88C118.829 24.7867 118.623 24.66 118.463 24.5C118.316 24.34 118.209 24.1467 118.143 23.92C118.089 23.68 118.063 23.4067 118.063 23.1C118.063 22.9 118.069 22.62 118.083 22.26C118.109 21.8867 118.149 21.38 118.203 20.74C118.256 20.0867 118.316 19.2667 118.383 18.28C118.463 17.28 118.556 16.0467 118.663 14.58C118.689 14.1933 118.829 14 119.083 14H119.863C120.236 14 120.549 14.04 120.803 14.12C121.056 14.2 121.263 14.3133 121.423 14.46C121.583 14.5933 121.696 14.7533 121.763 14.94C121.843 15.1267 121.896 15.32 121.923 15.52C122.083 15.2133 122.269 14.9533 122.483 14.74C122.709 14.5133 122.943 14.3333 123.183 14.2C123.423 14.0533 123.669 13.9533 123.923 13.9C124.176 13.8333 124.409 13.8 124.623 13.8C124.876 13.8 125.129 13.8467 125.383 13.94C125.649 14.0333 125.889 14.1733 126.103 14.36C126.316 14.5467 126.483 14.7867 126.603 15.08C126.736 15.3733 126.803 15.72 126.803 16.12C126.803 16.48 126.749 16.82 126.643 17.14C126.536 17.46 126.383 17.7467 126.183 18C125.983 18.24 125.736 18.4333 125.443 18.58C125.163 18.7133 124.849 18.78 124.503 18.78ZM127.493 28C127.346 28 127.273 27.9267 127.273 27.78L127.333 26.7C127.346 26.5267 127.366 26.3533 127.393 26.18C127.433 26.02 127.5 25.8733 127.593 25.74C127.7 25.6067 127.846 25.5 128.033 25.42C128.22 25.34 128.466 25.3 128.773 25.3H135.413C135.493 25.3 135.566 25.32 135.633 25.36C135.7 25.4133 135.733 25.4867 135.733 25.58L135.653 26.66C135.626 27.06 135.513 27.38 135.313 27.62C135.126 27.8733 134.733 28 134.133 28H127.493ZM144.64 10.8C144.974 10.8 145.247 10.8667 145.46 11C145.687 11.12 145.874 11.2867 146.02 11.5C146.167 11.7 146.287 11.9333 146.38 12.2C146.474 12.4667 146.554 12.74 146.62 13.02C147.154 15.18 147.594 16.96 147.94 18.36C148.287 19.76 148.56 20.8933 148.76 21.76C148.96 22.6133 149.1 23.2467 149.18 23.66C149.26 24.0733 149.3 24.36 149.3 24.52C149.3 24.7067 149.254 24.8333 149.16 24.9C149.08 24.9667 148.947 25 148.76 25H147.74C147.167 25 146.707 24.9333 146.36 24.8C146.027 24.6533 145.767 24.4467 145.58 24.18C145.407 23.9133 145.28 23.5933 145.2 23.22C145.12 22.8333 145.054 22.4 145 21.92H141.52L140.86 24.68C140.794 24.8933 140.64 25 140.4 25H139.34C139.127 25 138.907 24.98 138.68 24.94C138.454 24.8867 138.247 24.8067 138.06 24.7C137.887 24.5933 137.74 24.46 137.62 24.3C137.5 24.1267 137.44 23.92 137.44 23.68C137.44 23.3867 137.534 22.9067 137.72 22.24C137.907 21.5733 138.14 20.82 138.42 19.98C138.714 19.1267 139.034 18.24 139.38 17.32C139.74 16.3867 140.087 15.5067 140.42 14.68C140.754 13.8533 141.054 13.1267 141.32 12.5C141.6 11.8733 141.814 11.4333 141.96 11.18C142.067 10.9933 142.16 10.8867 142.24 10.86C142.334 10.82 142.5 10.8 142.74 10.8H144.64ZM142.24 19.02H144.54L143.7 13.74L142.24 19.02ZM154.066 25.2C153.546 25.2 153.046 25.1067 152.566 24.92C152.099 24.7333 151.686 24.44 151.326 24.04C150.979 23.64 150.699 23.1333 150.486 22.52C150.286 21.9067 150.186 21.1667 150.186 20.3C150.186 19.9133 150.213 19.4867 150.266 19.02C150.319 18.54 150.413 18.06 150.546 17.58C150.679 17.1 150.866 16.6333 151.106 16.18C151.346 15.7267 151.646 15.3267 152.006 14.98C152.379 14.62 152.819 14.3333 153.326 14.12C153.846 13.9067 154.453 13.8 155.146 13.8C155.813 13.8 156.346 13.92 156.746 14.16C157.159 14.3867 157.419 14.7867 157.526 15.36C157.553 14.84 157.579 14.3867 157.606 14C157.633 13.6133 157.653 13.2533 157.666 12.92C157.693 12.5867 157.719 12.2533 157.746 11.92C157.773 11.5867 157.799 11.2067 157.826 10.78C157.839 10.4867 157.873 10.3133 157.926 10.26C157.953 10.2333 157.986 10.22 158.026 10.22C158.066 10.2067 158.139 10.2 158.246 10.2H159.026C159.426 10.2 159.759 10.2467 160.026 10.34C160.293 10.4333 160.506 10.56 160.666 10.72C160.826 10.88 160.939 11.0667 161.006 11.28C161.073 11.48 161.106 11.6933 161.106 11.92C161.106 11.92 161.093 12.0867 161.066 12.42C161.039 12.7533 161.006 13.2 160.966 13.76C160.926 14.3067 160.879 14.9333 160.826 15.64C160.773 16.3467 160.719 17.08 160.666 17.84C160.613 18.5867 160.559 19.3333 160.506 20.08C160.453 20.8133 160.399 21.4933 160.346 22.12C160.293 22.7333 160.246 23.2667 160.206 23.72C160.179 24.16 160.159 24.4533 160.146 24.6C160.119 24.76 160.086 24.8667 160.046 24.92C160.006 24.9733 159.893 25 159.706 25H158.986C158.706 25 158.439 24.98 158.186 24.94C157.946 24.8867 157.733 24.8067 157.546 24.7C157.373 24.58 157.233 24.4267 157.126 24.24C157.033 24.04 156.986 23.7867 156.986 23.48C156.746 23.9867 156.379 24.4 155.886 24.72C155.406 25.04 154.799 25.2 154.066 25.2ZM155.806 16.46C155.126 16.46 154.619 16.76 154.286 17.36C153.966 17.9467 153.806 18.74 153.806 19.74C153.806 20.0867 153.826 20.4267 153.866 20.76C153.919 21.0933 154.006 21.3933 154.126 21.66C154.246 21.9267 154.406 22.14 154.606 22.3C154.819 22.46 155.086 22.54 155.406 22.54C155.979 22.54 156.459 22.26 156.846 21.7C157.233 21.14 157.426 20.26 157.426 19.06C157.426 18.7267 157.406 18.4067 157.366 18.1C157.326 17.78 157.246 17.5 157.126 17.26C157.006 17.02 156.839 16.8267 156.626 16.68C156.413 16.5333 156.139 16.46 155.806 16.46ZM166.034 21.4C165.994 22.0133 165.947 22.6 165.894 23.16C165.841 23.7067 165.801 24.1867 165.774 24.6C165.761 24.76 165.727 24.8667 165.674 24.92C165.621 24.9733 165.507 25 165.334 25H164.614C164.201 25 163.861 24.96 163.594 24.88C163.341 24.7867 163.134 24.66 162.974 24.5C162.827 24.34 162.721 24.1467 162.654 23.92C162.601 23.68 162.574 23.4067 162.574 23.1C162.574 22.9 162.581 22.62 162.594 22.26C162.621 21.8867 162.661 21.38 162.714 20.74C162.767 20.0867 162.827 19.2667 162.894 18.28C162.974 17.28 163.067 16.0467 163.174 14.58C163.187 14.2867 163.221 14.1133 163.274 14.06C163.314 14.02 163.421 14 163.594 14H164.374C164.774 14 165.101 14.0467 165.354 14.14C165.607 14.2333 165.814 14.3533 165.974 14.5C166.134 14.6467 166.247 14.82 166.314 15.02C166.381 15.22 166.421 15.4267 166.434 15.64C166.821 14.92 167.261 14.4333 167.754 14.18C168.247 13.9267 168.827 13.8 169.494 13.8C169.854 13.8 170.201 13.8333 170.534 13.9C170.867 13.9667 171.167 14.08 171.434 14.24C171.701 14.4 171.927 14.6133 172.114 14.88C172.301 15.1333 172.434 15.46 172.514 15.86C172.927 15.0867 173.381 14.5533 173.874 14.26C174.367 13.9533 174.987 13.8 175.734 13.8C176.147 13.8 176.541 13.8467 176.914 13.94C177.301 14.02 177.634 14.1667 177.914 14.38C178.194 14.5933 178.414 14.8867 178.574 15.26C178.747 15.62 178.834 16.0733 178.834 16.62C178.834 17.0333 178.814 17.54 178.774 18.14C178.734 18.74 178.687 19.3933 178.634 20.1C178.581 20.7933 178.521 21.5133 178.454 22.26C178.387 22.9933 178.334 23.7 178.294 24.38C178.281 24.5267 178.267 24.64 178.254 24.72C178.241 24.8 178.214 24.86 178.174 24.9C178.147 24.94 178.101 24.9667 178.034 24.98C177.967 24.9933 177.874 25 177.754 25H177.114C176.687 25 176.341 24.96 176.074 24.88C175.807 24.8 175.601 24.6867 175.454 24.54C175.307 24.3933 175.201 24.2133 175.134 24C175.081 23.7733 175.054 23.52 175.054 23.24C175.054 23.0667 175.061 22.82 175.074 22.5C175.101 22.18 175.127 21.8333 175.154 21.46C175.194 21.0867 175.227 20.7 175.254 20.3C175.294 19.9 175.327 19.5333 175.354 19.2C175.394 18.8533 175.421 18.5533 175.434 18.3C175.461 18.0467 175.474 17.88 175.474 17.8C175.474 17.4533 175.401 17.1467 175.254 16.88C175.121 16.6133 174.854 16.48 174.454 16.48C174.107 16.48 173.807 16.5933 173.554 16.82C173.301 17.0467 173.087 17.36 172.914 17.76C172.741 18.16 172.601 18.6333 172.494 19.18C172.387 19.7267 172.314 20.32 172.274 20.96C172.247 21.3733 172.214 21.8467 172.174 22.38C172.134 22.9133 172.087 23.58 172.034 24.38C172.021 24.5267 172.007 24.64 171.994 24.72C171.981 24.8 171.954 24.86 171.914 24.9C171.887 24.94 171.841 24.9667 171.774 24.98C171.707 24.9933 171.614 25 171.494 25H170.854C170.427 25 170.081 24.96 169.814 24.88C169.547 24.8 169.341 24.6867 169.194 24.54C169.047 24.3933 168.941 24.2133 168.874 24C168.821 23.7733 168.794 23.52 168.794 23.24C168.794 22.9733 168.814 22.5867 168.854 22.08C168.907 21.56 168.954 21.0267 168.994 20.48C169.047 19.92 169.094 19.3933 169.134 18.9C169.187 18.3933 169.214 18.0267 169.214 17.8C169.214 17.4533 169.141 17.1467 168.994 16.88C168.861 16.6133 168.594 16.48 168.194 16.48C167.834 16.48 167.527 16.6133 167.274 16.88C167.021 17.1467 166.807 17.5067 166.634 17.96C166.474 18.4 166.341 18.92 166.234 19.52C166.141 20.12 166.074 20.7467 166.034 21.4ZM182.681 25C182.267 25 181.927 24.96 181.661 24.88C181.407 24.7867 181.201 24.66 181.041 24.5C180.894 24.34 180.787 24.1467 180.721 23.92C180.667 23.68 180.641 23.4067 180.641 23.1C180.641 22.9 180.647 22.62 180.661 22.26C180.687 21.8867 180.727 21.38 180.781 20.74C180.834 20.0867 180.894 19.2667 180.961 18.28C181.041 17.28 181.134 16.0467 181.241 14.58C181.254 14.2867 181.287 14.1133 181.341 14.06C181.381 14.02 181.487 14 181.661 14H182.441C182.854 14 183.187 14.04 183.441 14.12C183.707 14.2 183.914 14.32 184.061 14.48C184.221 14.64 184.327 14.8333 184.381 15.06C184.447 15.2867 184.481 15.54 184.481 15.82C184.481 16.02 184.467 16.32 184.441 16.72C184.414 17.12 184.374 17.6667 184.321 18.36C184.281 19.04 184.221 19.8933 184.141 20.92C184.061 21.9333 183.961 23.16 183.841 24.6C183.827 24.76 183.794 24.8667 183.741 24.92C183.687 24.9733 183.574 25 183.401 25H182.681ZM181.261 11.64C181.261 11.1067 181.454 10.6867 181.841 10.38C182.227 10.0733 182.747 9.92 183.401 9.92C183.974 9.92 184.387 10.04 184.641 10.28C184.907 10.5067 185.041 10.8133 185.041 11.2C185.041 11.6933 184.854 12.1067 184.481 12.44C184.121 12.76 183.587 12.92 182.881 12.92C181.801 12.92 181.261 12.4933 181.261 11.64ZM193.066 23.24C193.066 22.9467 193.086 22.5667 193.126 22.1C193.179 21.62 193.226 21.12 193.266 20.6C193.319 20.0667 193.366 19.5533 193.406 19.06C193.459 18.5667 193.486 18.1533 193.486 17.82C193.486 17.4733 193.399 17.1667 193.226 16.9C193.066 16.62 192.746 16.48 192.266 16.48C191.799 16.48 191.412 16.5933 191.106 16.82C190.799 17.0467 190.539 17.46 190.326 18.06C190.126 18.66 189.959 19.4867 189.826 20.54C189.692 21.5933 189.566 22.9467 189.446 24.6C189.432 24.76 189.399 24.8667 189.346 24.92C189.292 24.9733 189.179 25 189.006 25H188.286C187.872 25 187.532 24.96 187.266 24.88C187.012 24.7867 186.806 24.66 186.646 24.5C186.499 24.34 186.392 24.1467 186.326 23.92C186.272 23.68 186.246 23.4067 186.246 23.1C186.246 22.9 186.252 22.62 186.266 22.26C186.292 21.8867 186.332 21.38 186.386 20.74C186.439 20.0867 186.499 19.2667 186.566 18.28C186.646 17.28 186.739 16.0467 186.846 14.58C186.859 14.2867 186.892 14.1133 186.946 14.06C186.986 14.02 187.092 14 187.266 14H188.046C188.446 14 188.772 14.0467 189.026 14.14C189.292 14.2333 189.506 14.36 189.666 14.52C189.826 14.6667 189.939 14.8467 190.006 15.06C190.072 15.26 190.112 15.4667 190.126 15.68C190.539 14.9733 191.012 14.4867 191.546 14.22C192.079 13.94 192.746 13.8 193.546 13.8C194.106 13.8 194.592 13.86 195.006 13.98C195.419 14.1 195.759 14.3067 196.026 14.6C196.306 14.88 196.512 15.2533 196.646 15.72C196.779 16.1733 196.846 16.74 196.846 17.42C196.846 17.6333 196.832 17.94 196.806 18.34C196.779 18.74 196.746 19.18 196.706 19.66C196.666 20.1267 196.619 20.62 196.566 21.14C196.526 21.6467 196.486 22.12 196.446 22.56C196.406 23 196.372 23.3867 196.346 23.72C196.319 24.0533 196.306 24.2733 196.306 24.38C196.306 24.6733 196.272 24.8533 196.206 24.92C196.139 24.9733 195.992 25 195.766 25H195.126C194.699 25 194.352 24.96 194.086 24.88C193.819 24.8 193.612 24.6867 193.466 24.54C193.319 24.3933 193.212 24.2133 193.146 24C193.092 23.7733 193.066 23.52 193.066 23.24Z" fill="black"/>
<rect width="27.7268" height="33" rx="5" fill="url(#paint0_linear_353_3452)"/>
<path d="M19.0827 26C18.1867 26 17.5467 25.824 17.1627 25.472C16.7787 25.12 16.5867 24.616 16.5867 23.96C16.5867 23.608 16.6187 22.984 16.6827 22.088C16.7467 21.192 16.8187 20.184 16.8987 19.064H12.6267L12.1467 25.64C12.1307 25.768 12.0987 25.864 12.0507 25.928C12.0027 25.976 11.9067 26 11.7627 26H10.4427C9.54666 26 8.90666 25.824 8.52266 25.472C8.13866 25.12 7.94666 24.616 7.94666 23.96C7.94666 23.64 7.97066 23.096 8.01866 22.328C8.06666 21.544 8.13066 20.656 8.21066 19.664C8.29066 18.672 8.37066 17.624 8.45066 16.52C8.53066 15.416 8.61066 14.376 8.69066 13.4C8.77066 12.424 8.83466 11.568 8.88266 10.832C8.93066 10.096 8.95466 9.592 8.95466 9.32C8.95466 9.08 9.08266 8.96 9.33866 8.96H10.6587C11.6347 8.96 12.2907 9.168 12.6267 9.584C12.9627 10 13.1307 10.616 13.1307 11.432C13.1307 11.56 13.1067 12.016 13.0587 12.8C13.0107 13.568 12.9467 14.496 12.8667 15.584H17.1627C17.2107 14.88 17.2587 14.192 17.3067 13.52C17.3707 12.848 17.4187 12.232 17.4507 11.672C17.4987 11.112 17.5307 10.632 17.5467 10.232C17.5787 9.816 17.5947 9.512 17.5947 9.32C17.5947 9.08 17.7227 8.96 17.9787 8.96H19.2987C20.2747 8.96 20.9307 9.168 21.2667 9.584C21.6027 10 21.7707 10.616 21.7707 11.432C21.7707 11.512 21.7547 11.768 21.7227 12.2C21.7067 12.632 21.6747 13.176 21.6267 13.832C21.5787 14.488 21.5227 15.224 21.4587 16.04C21.4107 16.84 21.3547 17.664 21.2907 18.512C21.2427 19.36 21.1867 20.192 21.1227 21.008C21.0747 21.808 21.0267 22.536 20.9787 23.192C20.9307 23.848 20.8907 24.4 20.8587 24.848C20.8267 25.28 20.8027 25.544 20.7867 25.64C20.7707 25.768 20.7387 25.864 20.6907 25.928C20.6427 25.976 20.5467 26 20.4027 26H19.0827Z" fill="#009963"/>
<defs>
<linearGradient id="paint0_linear_353_3452" x1="0" y1="16.5" x2="27.7268" y2="16.5" gradientUnits="userSpaceOnUse">
<stop stop-color="#FBFBFB"/>
<stop offset="1" stop-color="#EEEFEF"/>
</linearGradient>
</defs>
</svg>
