<svg width="107" height="23" viewBox="0 0 107 23" fill="none" xmlns="http://www.w3.org/2000/svg">
<path d="M13.352 16.44C13.352 16.568 13.272 16.736 13.112 16.944C12.968 17.136 12.76 17.328 12.488 17.52C12.232 17.712 11.928 17.88 11.576 18.024C11.24 18.168 10.88 18.24 10.496 18.24C9.904 18.24 9.384 18.056 8.936 17.688C8.488 17.304 8.08 16.784 7.712 16.128C7.36 15.472 7.032 14.696 6.728 13.8C6.424 12.888 6.112 11.904 5.792 10.848L4.88 11.448L4.424 17.64C4.408 17.768 4.376 17.864 4.328 17.928C4.28 17.976 4.184 18 4.04 18H2.72C1.808 18 1.16 17.824 0.776 17.472C0.408 17.104 0.224 16.568 0.224 15.864C0.224 15.64 0.232 15.304 0.248 14.856C0.28 14.392 0.32 13.856 0.368 13.248C0.416 12.624 0.464 11.944 0.512 11.208C0.576 10.472 0.64 9.72 0.704 8.952C0.816 7.416 0.904 6.2 0.968 5.304C1.048 4.408 1.104 3.704 1.136 3.192C1.168 2.664 1.192 2.28 1.208 2.04C1.224 1.784 1.232 1.544 1.232 1.32C1.232 1.08 1.36 0.959999 1.616 0.959999H2.936C3.448 0.959999 3.856 1.016 4.16 1.128C4.48 1.224 4.728 1.368 4.904 1.56C5.08 1.752 5.2 1.992 5.264 2.28C5.328 2.552 5.36 2.872 5.36 3.24C5.36 3.608 5.336 4.208 5.288 5.04C5.256 5.856 5.2 6.776 5.12 7.8C5.664 7.128 6.312 6.296 7.064 5.304C7.832 4.312 8.76 3.088 9.848 1.632C9.896 1.568 9.96 1.488 10.04 1.392C10.136 1.28 10.232 1.176 10.328 1.08C10.44 0.983999 10.552 0.903999 10.664 0.839999C10.792 0.759999 10.912 0.719999 11.024 0.719999C11.232 0.719999 11.472 0.831999 11.744 1.056C12.016 1.264 12.272 1.528 12.512 1.848C12.752 2.152 12.952 2.472 13.112 2.808C13.288 3.128 13.376 3.4 13.376 3.624C13.376 4.088 12.96 4.784 12.128 5.712C11.296 6.624 10.104 7.68 8.552 8.88C8.824 9.344 9.136 9.848 9.488 10.392C9.84 10.92 10.192 11.464 10.544 12.024C10.896 12.568 11.24 13.104 11.576 13.632C11.912 14.144 12.208 14.608 12.464 15.024C12.736 15.424 12.952 15.752 13.112 16.008C13.272 16.264 13.352 16.408 13.352 16.44ZM19.8913 18.24C18.7873 18.24 17.8673 18.088 17.1313 17.784C16.4113 17.464 15.8353 17.032 15.4033 16.488C14.9713 15.944 14.6673 15.312 14.4913 14.592C14.3153 13.856 14.2273 13.072 14.2273 12.24C14.2273 11.28 14.3393 10.344 14.5633 9.432C14.8033 8.504 15.2033 7.68 15.7633 6.96C16.3233 6.24 17.0593 5.664 17.9713 5.232C18.8993 4.784 20.0513 4.56 21.4273 4.56C23.4433 4.56 24.8833 5.056 25.7473 6.048C26.6273 7.024 27.0673 8.4 27.0673 10.176C27.0673 10.672 27.0273 11.224 26.9473 11.832C26.8833 12.424 26.7473 13.016 26.5393 13.608C26.3473 14.2 26.0753 14.776 25.7233 15.336C25.3873 15.896 24.9553 16.392 24.4273 16.824C23.8993 17.256 23.2593 17.6 22.5073 17.856C21.7713 18.112 20.8993 18.24 19.8913 18.24ZM21.0193 7.752C20.4113 7.752 19.9233 7.912 19.5553 8.232C19.2033 8.536 18.9313 8.912 18.7393 9.36C18.5633 9.792 18.4433 10.256 18.3793 10.752C18.3313 11.232 18.3073 11.64 18.3073 11.976C18.3073 13.032 18.4753 13.808 18.8113 14.304C19.1473 14.8 19.6273 15.048 20.2513 15.048C20.8113 15.048 21.2673 14.872 21.6193 14.52C21.9873 14.168 22.2673 13.744 22.4593 13.248C22.6673 12.752 22.8033 12.232 22.8673 11.688C22.9473 11.144 22.9873 10.688 22.9873 10.32C22.9873 9.52 22.8353 8.896 22.5313 8.448C22.2433 7.984 21.7393 7.752 21.0193 7.752ZM37.043 15.888C37.043 15.536 37.067 15.08 37.115 14.52C37.179 13.944 37.235 13.344 37.283 12.72C37.347 12.08 37.403 11.464 37.451 10.872C37.515 10.28 37.547 9.784 37.547 9.384C37.547 8.968 37.443 8.6 37.235 8.28C37.043 7.944 36.659 7.776 36.083 7.776C35.523 7.776 35.059 7.912 34.691 8.184C34.323 8.456 34.011 8.952 33.755 9.672C33.515 10.392 33.315 11.384 33.155 12.648C32.995 13.912 32.843 15.536 32.699 17.52C32.683 17.712 32.643 17.84 32.579 17.904C32.515 17.968 32.379 18 32.171 18H31.307C30.811 18 30.403 17.952 30.083 17.856C29.779 17.744 29.531 17.592 29.339 17.4C29.163 17.208 29.035 16.976 28.955 16.704C28.891 16.416 28.859 16.088 28.859 15.72C28.859 15.48 28.867 15.144 28.883 14.712C28.915 14.264 28.963 13.656 29.027 12.888C29.091 12.104 29.163 11.12 29.243 9.936C29.339 8.736 29.451 7.256 29.579 5.496C29.595 5.144 29.635 4.936 29.699 4.872C29.747 4.824 29.875 4.8 30.083 4.8H31.019C31.499 4.8 31.891 4.856 32.195 4.968C32.515 5.08 32.771 5.232 32.963 5.424C33.155 5.6 33.291 5.816 33.371 6.072C33.451 6.312 33.499 6.56 33.515 6.816C34.011 5.968 34.579 5.384 35.219 5.064C35.859 4.728 36.659 4.56 37.619 4.56C38.291 4.56 38.875 4.632 39.371 4.776C39.867 4.92 40.275 5.168 40.595 5.52C40.931 5.856 41.179 6.304 41.339 6.864C41.499 7.408 41.579 8.088 41.579 8.904C41.579 9.16 41.563 9.528 41.531 10.008C41.499 10.488 41.459 11.016 41.411 11.592C41.363 12.152 41.307 12.744 41.243 13.368C41.195 13.976 41.147 14.544 41.099 15.072C41.051 15.6 41.011 16.064 40.979 16.464C40.947 16.864 40.931 17.128 40.931 17.256C40.931 17.608 40.891 17.824 40.811 17.904C40.731 17.968 40.555 18 40.283 18H39.515C39.003 18 38.587 17.952 38.267 17.856C37.947 17.76 37.699 17.624 37.523 17.448C37.347 17.272 37.219 17.056 37.139 16.8C37.075 16.528 37.043 16.224 37.043 15.888ZM51.5664 15.168C51.1664 15.888 50.6784 16.424 50.1024 16.776C49.5264 17.112 48.8064 17.28 47.9424 17.28C47.2864 17.28 46.6864 17.176 46.1424 16.968C45.5984 16.76 45.1344 16.432 44.7504 15.984C44.3664 15.536 44.0624 14.976 43.8384 14.304C43.6304 13.616 43.5264 12.8 43.5264 11.856C43.5264 11.088 43.6064 10.28 43.7664 9.432C43.9264 8.568 44.2144 7.776 44.6304 7.056C45.0624 6.336 45.6464 5.744 46.3824 5.28C47.1184 4.8 48.0624 4.56 49.2144 4.56C49.6944 4.56 50.1024 4.616 50.4384 4.728C50.7904 4.824 51.0864 4.96 51.3264 5.136C51.5824 5.312 51.7824 5.52 51.9264 5.76C52.0864 6 52.2064 6.256 52.2864 6.528C52.2864 6.544 52.2864 6.488 52.2864 6.36C52.3024 6.216 52.3184 6.056 52.3344 5.88C52.3504 5.704 52.3584 5.536 52.3584 5.376C52.3744 5.2 52.3824 5.088 52.3824 5.04C52.3984 4.88 52.5024 4.8 52.6944 4.8H53.7984C54.6304 4.8 55.2304 4.976 55.5984 5.328C55.9824 5.664 56.1744 6.312 56.1744 7.272C56.1744 7.4 56.1664 7.696 56.1504 8.16C56.1344 8.608 56.1024 9.152 56.0544 9.792C56.0224 10.432 55.9744 11.144 55.9104 11.928C55.8464 12.696 55.7744 13.472 55.6944 14.256C55.6144 15.04 55.5264 15.792 55.4304 16.512C55.3344 17.232 55.2304 17.864 55.1184 18.408C55.0064 18.952 54.8144 19.48 54.5424 19.992C54.2704 20.504 53.8864 20.96 53.3904 21.36C52.8944 21.76 52.2544 22.08 51.4704 22.32C50.7024 22.56 49.7584 22.68 48.6384 22.68C47.7904 22.68 47.0464 22.6 46.4064 22.44C45.7824 22.28 45.2624 22.064 44.8464 21.792C44.4304 21.536 44.1104 21.24 43.8864 20.904C43.6784 20.568 43.5744 20.232 43.5744 19.896C43.5744 19.592 43.6384 19.328 43.7664 19.104C43.8944 18.88 44.0624 18.696 44.2704 18.552C44.4784 18.408 44.7024 18.296 44.9424 18.216C45.1984 18.152 45.4384 18.12 45.6624 18.12C45.9344 18.12 46.1344 18.2 46.2624 18.36C46.3904 18.52 46.5344 18.696 46.6944 18.888C46.8544 19.096 47.0784 19.28 47.3664 19.44C47.6544 19.6 48.1024 19.68 48.7104 19.68C49.7664 19.68 50.5024 19.288 50.9184 18.504C51.3504 17.736 51.5664 16.624 51.5664 15.168ZM49.5504 14.088C50.1264 14.088 50.5744 13.952 50.8944 13.68C51.2304 13.408 51.4864 13.08 51.6624 12.696C51.8384 12.312 51.9504 11.912 51.9984 11.496C52.0464 11.08 52.0704 10.72 52.0704 10.416C52.0704 9.456 51.9184 8.776 51.6144 8.376C51.3264 7.96 50.8864 7.752 50.2944 7.752C49.7024 7.752 49.2384 7.912 48.9024 8.232C48.5664 8.552 48.3104 8.936 48.1344 9.384C47.9744 9.816 47.8704 10.256 47.8224 10.704C47.7744 11.136 47.7504 11.472 47.7504 11.712C47.7504 12.512 47.8864 13.112 48.1584 13.512C48.4304 13.896 48.8944 14.088 49.5504 14.088ZM63.4565 8.04C63.4085 8.648 63.3525 9.248 63.2885 9.84C63.2405 10.432 63.1925 10.992 63.1445 11.52C63.0965 12.048 63.0565 12.52 63.0245 12.936C63.0085 13.352 63.0005 13.672 63.0005 13.896C63.0005 14.312 63.0485 14.592 63.1445 14.736C63.2405 14.864 63.4005 14.928 63.6245 14.928C63.8005 14.928 63.9525 14.896 64.0805 14.832C64.2085 14.768 64.3285 14.696 64.4405 14.616C64.5525 14.536 64.6485 14.464 64.7285 14.4C64.8245 14.336 64.9285 14.304 65.0405 14.304C65.1525 14.304 65.2565 14.368 65.3525 14.496C65.4485 14.624 65.4965 14.92 65.4965 15.384C65.4965 16.264 65.2565 16.96 64.7765 17.472C64.2965 17.984 63.4725 18.24 62.3045 18.24C61.1525 18.24 60.2965 17.976 59.7365 17.448C59.1925 16.904 58.9205 16.08 58.9205 14.976C58.9205 14.736 58.9285 14.456 58.9445 14.136C58.9765 13.8 59.0165 13.368 59.0645 12.84C59.1125 12.312 59.1685 11.664 59.2325 10.896C59.3125 10.128 59.3925 9.176 59.4725 8.04H58.2005C58.0725 8.04 57.9925 8.016 57.9605 7.968C57.9445 7.904 57.9365 7.816 57.9365 7.704L58.0085 6.48C58.0245 6.272 58.0485 6.072 58.0805 5.88C58.1285 5.672 58.2085 5.488 58.3205 5.328C58.4485 5.168 58.6245 5.04 58.8485 4.944C59.0725 4.848 59.3685 4.8 59.7365 4.8C59.8485 4.512 59.9765 4.168 60.1205 3.768C60.2645 3.368 60.4085 2.984 60.5525 2.616C60.6965 2.232 60.8325 1.912 60.9605 1.656C61.1045 1.4 61.2325 1.272 61.3445 1.272H62.0405C62.7125 1.272 63.1765 1.48 63.4325 1.896C63.6885 2.312 63.8165 2.808 63.8165 3.384C63.8165 3.704 63.7925 4.176 63.7445 4.8H66.2645C66.5205 4.8 66.6485 4.912 66.6485 5.136L66.5525 6.432C66.5205 6.912 66.3845 7.304 66.1445 7.608C65.9205 7.896 65.4485 8.04 64.7285 8.04H63.4565ZM73.0944 18.24C71.9904 18.24 71.0704 18.088 70.3344 17.784C69.6144 17.464 69.0384 17.032 68.6064 16.488C68.1744 15.944 67.8704 15.312 67.6944 14.592C67.5184 13.856 67.4304 13.072 67.4304 12.24C67.4304 11.28 67.5424 10.344 67.7664 9.432C68.0064 8.504 68.4064 7.68 68.9664 6.96C69.5264 6.24 70.2624 5.664 71.1744 5.232C72.1024 4.784 73.2544 4.56 74.6304 4.56C76.6464 4.56 78.0864 5.056 78.9504 6.048C79.8304 7.024 80.2704 8.4 80.2704 10.176C80.2704 10.672 80.2304 11.224 80.1504 11.832C80.0864 12.424 79.9504 13.016 79.7424 13.608C79.5504 14.2 79.2784 14.776 78.9264 15.336C78.5904 15.896 78.1584 16.392 77.6304 16.824C77.1024 17.256 76.4624 17.6 75.7104 17.856C74.9744 18.112 74.1024 18.24 73.0944 18.24ZM74.2224 7.752C73.6144 7.752 73.1264 7.912 72.7584 8.232C72.4064 8.536 72.1344 8.912 71.9424 9.36C71.7664 9.792 71.6464 10.256 71.5824 10.752C71.5344 11.232 71.5104 11.64 71.5104 11.976C71.5104 13.032 71.6784 13.808 72.0144 14.304C72.3504 14.8 72.8304 15.048 73.4544 15.048C74.0144 15.048 74.4704 14.872 74.8224 14.52C75.1904 14.168 75.4704 13.744 75.6624 13.248C75.8704 12.752 76.0064 12.232 76.0704 11.688C76.1504 11.144 76.1904 10.688 76.1904 10.32C76.1904 9.52 76.0384 8.896 75.7344 8.448C75.4464 7.984 74.9424 7.752 74.2224 7.752ZM86.6461 6.84C86.6461 7.176 86.6141 7.648 86.5501 8.256C86.5021 8.864 86.4461 9.496 86.3821 10.152C86.3341 10.808 86.2781 11.424 86.2141 12C86.1661 12.576 86.1421 12.992 86.1421 13.248C86.1421 13.808 86.2781 14.248 86.5501 14.568C86.8381 14.872 87.2301 15.024 87.7261 15.024C88.1581 15.024 88.5181 14.856 88.8061 14.52C89.1101 14.168 89.3501 13.72 89.5261 13.176C89.7181 12.616 89.8701 11.984 89.9821 11.28C90.0941 10.576 90.1741 9.864 90.2221 9.144C90.2861 8.424 90.3341 7.728 90.3661 7.056C90.4141 6.368 90.4621 5.776 90.5101 5.28C90.5261 5.152 90.5741 5.04 90.6541 4.944C90.7341 4.848 90.8621 4.8 91.0381 4.8H91.9021C92.3981 4.8 92.7981 4.856 93.1021 4.968C93.4221 5.064 93.6701 5.208 93.8461 5.4C94.0381 5.592 94.1661 5.832 94.2301 6.12C94.3101 6.392 94.3501 6.712 94.3501 7.08C94.3501 7.32 94.3341 7.664 94.3021 8.112C94.2861 8.544 94.2461 9.152 94.1821 9.936C94.1181 10.704 94.0381 11.688 93.9421 12.888C93.8621 14.072 93.7581 15.544 93.6301 17.304C93.5981 17.64 93.5581 17.84 93.5101 17.904C93.4781 17.968 93.3501 18 93.1261 18H92.1901C91.7101 18 91.3101 17.944 90.9901 17.832C90.6861 17.72 90.4381 17.576 90.2461 17.4C90.0541 17.224 89.9181 17.016 89.8381 16.776C89.7581 16.536 89.7101 16.288 89.6941 16.032C89.4541 16.448 89.1821 16.8 88.8781 17.088C88.5901 17.376 88.2861 17.608 87.9661 17.784C87.6461 17.944 87.3181 18.056 86.9821 18.12C86.6461 18.2 86.3181 18.24 85.9981 18.24C85.3901 18.24 84.8461 18.144 84.3661 17.952C83.8861 17.744 83.4781 17.472 83.1421 17.136C82.8221 16.8 82.5741 16.4 82.3981 15.936C82.2221 15.472 82.1341 14.976 82.1341 14.448C82.1341 14.24 82.1421 13.904 82.1581 13.44C82.1901 12.96 82.2221 12.424 82.2541 11.832C82.3021 11.24 82.3501 10.616 82.3981 9.96C82.4461 9.288 82.4861 8.656 82.5181 8.064C82.5661 7.472 82.6061 6.952 82.6381 6.504C82.6861 6.056 82.7181 5.736 82.7341 5.544C82.7661 5.256 82.8301 5.064 82.9261 4.968C83.0221 4.856 83.1821 4.8 83.4061 4.8H84.1741C84.6701 4.8 85.0781 4.848 85.3981 4.944C85.7181 5.04 85.9661 5.176 86.1421 5.352C86.3341 5.528 86.4621 5.744 86.5261 6C86.6061 6.24 86.6461 6.52 86.6461 6.84ZM104.205 10.536C104.109 10.536 103.997 10.536 103.869 10.536C103.757 10.52 103.645 10.504 103.533 10.488C103.421 10.456 103.325 10.424 103.245 10.392C103.165 10.344 103.125 10.288 103.125 10.224C103.125 10.016 103.133 9.824 103.149 9.648C103.165 9.472 103.173 9.288 103.173 9.096C103.173 8.744 103.125 8.456 103.029 8.232C102.933 8.008 102.741 7.896 102.453 7.896C102.005 7.896 101.629 8.192 101.325 8.784C101.037 9.36 100.853 10.232 100.773 11.4C100.741 11.912 100.693 12.496 100.629 13.152C100.581 13.792 100.533 14.416 100.485 15.024C100.437 15.616 100.397 16.144 100.365 16.608C100.333 17.072 100.317 17.376 100.317 17.52C100.317 17.68 100.261 17.8 100.149 17.88C100.037 17.96 99.9168 18 99.7888 18H98.9248C98.4288 18 98.0208 17.952 97.7008 17.856C97.3968 17.744 97.1488 17.592 96.9568 17.4C96.7808 17.208 96.6528 16.976 96.5728 16.704C96.5088 16.416 96.4768 16.088 96.4768 15.72C96.4768 15.48 96.4848 15.144 96.5008 14.712C96.5328 14.264 96.5808 13.656 96.6448 12.888C96.7088 12.104 96.7808 11.12 96.8608 9.936C96.9568 8.736 97.0688 7.256 97.1968 5.496C97.2288 5.032 97.3968 4.8 97.7008 4.8H98.6367C99.0848 4.8 99.4608 4.848 99.7648 4.944C100.069 5.04 100.317 5.176 100.509 5.352C100.701 5.512 100.837 5.704 100.917 5.928C101.013 6.152 101.077 6.384 101.109 6.624C101.301 6.256 101.525 5.944 101.781 5.688C102.053 5.416 102.333 5.2 102.621 5.04C102.909 4.864 103.205 4.744 103.509 4.68C103.813 4.6 104.093 4.56 104.349 4.56C104.653 4.56 104.957 4.616 105.261 4.728C105.581 4.84 105.869 5.008 106.125 5.232C106.381 5.456 106.581 5.744 106.725 6.096C106.885 6.448 106.965 6.864 106.965 7.344C106.965 7.776 106.901 8.184 106.773 8.568C106.645 8.952 106.461 9.296 106.221 9.6C105.981 9.888 105.685 10.12 105.333 10.296C104.997 10.456 104.621 10.536 104.205 10.536Z" fill="black"/>
</svg>
