<svg width="135" height="33" viewBox="0 0 135 33" fill="none" xmlns="http://www.w3.org/2000/svg">
<path d="M62.3 24.5C61.5533 24.5 61.02 24.3533 60.7 24.06C60.38 23.7667 60.22 23.3467 60.22 22.8C60.22 22.5067 60.2467 21.9867 60.3 21.24C60.3533 20.4933 60.4133 19.6533 60.48 18.72H56.92L56.52 24.2C56.5067 24.3067 56.48 24.3867 56.44 24.44C56.4 24.48 56.32 24.5 56.2 24.5H55.1C54.3533 24.5 53.82 24.3533 53.5 24.06C53.18 23.7667 53.02 23.3467 53.02 22.8C53.02 22.5333 53.04 22.08 53.08 21.44C53.12 20.7867 53.1733 20.0467 53.24 19.22C53.3067 18.3933 53.3733 17.52 53.44 16.6C53.5067 15.68 53.5733 14.8133 53.64 14C53.7067 13.1867 53.76 12.4733 53.8 11.86C53.84 11.2467 53.86 10.8267 53.86 10.6C53.86 10.4 53.9667 10.3 54.18 10.3H55.28C56.0933 10.3 56.64 10.4733 56.92 10.82C57.2 11.1667 57.34 11.68 57.34 12.36C57.34 12.4667 57.32 12.8467 57.28 13.5C57.24 14.14 57.1867 14.9133 57.12 15.82H60.7C60.74 15.2333 60.78 14.66 60.82 14.1C60.8733 13.54 60.9133 13.0267 60.94 12.56C60.98 12.0933 61.0067 11.6933 61.02 11.36C61.0467 11.0133 61.06 10.76 61.06 10.6C61.06 10.4 61.1667 10.3 61.38 10.3H62.48C63.2933 10.3 63.84 10.4733 64.12 10.82C64.4 11.1667 64.54 11.68 64.54 12.36C64.54 12.4267 64.5267 12.64 64.5 13C64.4867 13.36 64.46 13.8133 64.42 14.36C64.38 14.9067 64.3333 15.52 64.28 16.2C64.24 16.8667 64.1933 17.5533 64.14 18.26C64.1 18.9667 64.0533 19.66 64 20.34C63.96 21.0067 63.92 21.6133 63.88 22.16C63.84 22.7067 63.8067 23.1667 63.78 23.54C63.7533 23.9 63.7333 24.12 63.72 24.2C63.7067 24.3067 63.68 24.3867 63.64 24.44C63.6 24.48 63.52 24.5 63.4 24.5H62.3ZM65.6966 22.04C65.6966 20.84 66.2366 19.9 67.3166 19.22C68.3966 18.54 69.9899 18.1733 72.0966 18.12C72.1099 17.9733 72.1166 17.8533 72.1166 17.76C72.1299 17.6533 72.1366 17.5267 72.1366 17.38C72.1366 16.9533 72.0566 16.6133 71.8966 16.36C71.7366 16.1067 71.4032 15.98 70.8966 15.98C70.6166 15.98 70.3899 16.02 70.2166 16.1C70.0432 16.18 69.9032 16.2933 69.7966 16.44C69.6899 16.5733 69.6032 16.74 69.5366 16.94C69.4699 17.14 69.4099 17.36 69.3566 17.6C69.3299 17.72 69.2699 17.8 69.1766 17.84C69.0832 17.8667 68.9366 17.88 68.7366 17.88C67.3766 17.88 66.6966 17.3667 66.6966 16.34C66.6966 15.9267 66.7899 15.5333 66.9766 15.16C67.1766 14.7867 67.4632 14.4667 67.8366 14.2C68.2232 13.92 68.7032 13.7 69.2766 13.54C69.8499 13.38 70.5166 13.3 71.2766 13.3C72.7566 13.3 73.8299 13.6067 74.4966 14.22C75.1632 14.8333 75.4966 15.7 75.4966 16.82C75.4966 16.9667 75.4766 17.2333 75.4366 17.62C75.4099 17.9933 75.3699 18.3933 75.3166 18.82C75.2766 19.2333 75.2366 19.6267 75.1966 20C75.1699 20.3733 75.1566 20.6333 75.1566 20.78C75.1566 21.1133 75.2166 21.3533 75.3366 21.5C75.4566 21.6333 75.5899 21.7267 75.7366 21.78C75.8966 21.8333 76.0366 21.8733 76.1566 21.9C76.2766 21.9267 76.3366 21.9933 76.3366 22.1C76.3366 22.3933 76.2966 22.6933 76.2166 23C76.1366 23.3067 76.0032 23.5867 75.8166 23.84C75.6432 24.0933 75.3966 24.3 75.0766 24.46C74.7699 24.62 74.3899 24.7 73.9366 24.7C73.2966 24.7 72.8166 24.5467 72.4966 24.24C72.1766 23.9333 71.9632 23.5067 71.8566 22.96C71.5366 23.4267 71.1166 23.8333 70.5966 24.18C70.0899 24.5267 69.4232 24.7 68.5966 24.7C68.1966 24.7 67.8166 24.6533 67.4566 24.56C67.1099 24.4667 66.8032 24.3133 66.5366 24.1C66.2832 23.8867 66.0766 23.6133 65.9166 23.28C65.7699 22.9333 65.6966 22.52 65.6966 22.04ZM71.9166 19.76C71.5699 19.76 71.2299 19.7867 70.8966 19.84C70.5632 19.8933 70.2632 19.98 69.9966 20.1C69.7432 20.2067 69.5366 20.3533 69.3766 20.54C69.2166 20.7267 69.1366 20.9533 69.1366 21.22C69.1366 21.5267 69.2299 21.74 69.4166 21.86C69.6166 21.98 69.8299 22.04 70.0566 22.04C70.2699 22.04 70.4832 21.9933 70.6966 21.9C70.9099 21.8067 71.0966 21.6667 71.2566 21.48C71.4299 21.28 71.5766 21.04 71.6966 20.76C71.8166 20.48 71.8899 20.1467 71.9166 19.76ZM84.3861 22.74C84.3861 22.4467 84.4061 22.0667 84.4461 21.6C84.4994 21.12 84.5461 20.62 84.5861 20.1C84.6394 19.5667 84.6861 19.0533 84.7261 18.56C84.7794 18.0667 84.8061 17.6533 84.8061 17.32C84.8061 16.9733 84.7194 16.6667 84.5461 16.4C84.3861 16.12 84.0661 15.98 83.5861 15.98C83.1194 15.98 82.7328 16.0933 82.4261 16.32C82.1194 16.5467 81.8594 16.96 81.6461 17.56C81.4461 18.16 81.2794 18.9867 81.1461 20.04C81.0128 21.0933 80.8861 22.4467 80.7661 24.1C80.7528 24.26 80.7194 24.3667 80.6661 24.42C80.6128 24.4733 80.4994 24.5 80.3261 24.5H79.6061C79.1928 24.5 78.8528 24.46 78.5861 24.38C78.3328 24.2867 78.1261 24.16 77.9661 24C77.8194 23.84 77.7128 23.6467 77.6461 23.42C77.5928 23.18 77.5661 22.9067 77.5661 22.6C77.5661 22.4 77.5728 22.12 77.5861 21.76C77.6128 21.3867 77.6528 20.88 77.7061 20.24C77.7594 19.5867 77.8194 18.7667 77.8861 17.78C77.9661 16.78 78.0594 15.5467 78.1661 14.08C78.1794 13.7867 78.2128 13.6133 78.2661 13.56C78.3061 13.52 78.4128 13.5 78.5861 13.5H79.3661C79.7661 13.5 80.0928 13.5467 80.3461 13.64C80.6128 13.7333 80.8261 13.86 80.9861 14.02C81.1461 14.1667 81.2594 14.3467 81.3261 14.56C81.3928 14.76 81.4328 14.9667 81.4461 15.18C81.8594 14.4733 82.3328 13.9867 82.8661 13.72C83.3994 13.44 84.0661 13.3 84.8661 13.3C85.4261 13.3 85.9128 13.36 86.3261 13.48C86.7394 13.6 87.0794 13.8067 87.3461 14.1C87.6261 14.38 87.8328 14.7533 87.9661 15.22C88.0994 15.6733 88.1661 16.24 88.1661 16.92C88.1661 17.1333 88.1528 17.44 88.1261 17.84C88.0994 18.24 88.0661 18.68 88.0261 19.16C87.9861 19.6267 87.9394 20.12 87.8861 20.64C87.8461 21.1467 87.8061 21.62 87.7661 22.06C87.7261 22.5 87.6928 22.8867 87.6661 23.22C87.6394 23.5533 87.6261 23.7733 87.6261 23.88C87.6261 24.1733 87.5928 24.3533 87.5261 24.42C87.4594 24.4733 87.3128 24.5 87.0861 24.5H86.4461C86.0194 24.5 85.6728 24.46 85.4061 24.38C85.1394 24.3 84.9328 24.1867 84.7861 24.04C84.6394 23.8933 84.5328 23.7133 84.4661 23.5C84.4128 23.2733 84.3861 23.02 84.3861 22.74ZM98.5458 16.2C98.5058 16.7067 98.4591 17.2067 98.4058 17.7C98.3658 18.1933 98.3258 18.66 98.2858 19.1C98.2458 19.54 98.2124 19.9333 98.1858 20.28C98.1724 20.6267 98.1658 20.8933 98.1658 21.08C98.1658 21.4267 98.2058 21.66 98.2858 21.78C98.3658 21.8867 98.4991 21.94 98.6858 21.94C98.8324 21.94 98.9591 21.9133 99.0658 21.86C99.1724 21.8067 99.2724 21.7467 99.3658 21.68C99.4591 21.6133 99.5391 21.5533 99.6058 21.5C99.6858 21.4467 99.7724 21.42 99.8658 21.42C99.9591 21.42 100.046 21.4733 100.126 21.58C100.206 21.6867 100.246 21.9333 100.246 22.32C100.246 23.0533 100.046 23.6333 99.6458 24.06C99.2458 24.4867 98.5591 24.7 97.5858 24.7C96.6258 24.7 95.9124 24.48 95.4458 24.04C94.9924 23.5867 94.7658 22.9 94.7658 21.98C94.7658 21.78 94.7724 21.5467 94.7858 21.28C94.8124 21 94.8458 20.64 94.8858 20.2C94.9258 19.76 94.9724 19.22 95.0258 18.58C95.0924 17.94 95.1591 17.1467 95.2258 16.2H94.1658C94.0591 16.2 93.9924 16.18 93.9658 16.14C93.9524 16.0867 93.9458 16.0133 93.9458 15.92L94.0058 14.9C94.0191 14.7267 94.0391 14.56 94.0658 14.4C94.1058 14.2267 94.1724 14.0733 94.2658 13.94C94.3724 13.8067 94.5191 13.7 94.7058 13.62C94.8924 13.54 95.1391 13.5 95.4458 13.5C95.5391 13.26 95.6458 12.9733 95.7658 12.64C95.8858 12.3067 96.0058 11.9867 96.1258 11.68C96.2458 11.36 96.3591 11.0933 96.4658 10.88C96.5858 10.6667 96.6924 10.56 96.7858 10.56H97.3658C97.9258 10.56 98.3124 10.7333 98.5258 11.08C98.7391 11.4267 98.8458 11.84 98.8458 12.32C98.8458 12.5867 98.8258 12.98 98.7858 13.5H100.886C101.099 13.5 101.206 13.5933 101.206 13.78L101.126 14.86C101.099 15.26 100.986 15.5867 100.786 15.84C100.599 16.08 100.206 16.2 99.6058 16.2H98.5458ZM106.577 24.7C105.657 24.7 104.891 24.5733 104.277 24.32C103.677 24.0533 103.197 23.6933 102.837 23.24C102.477 22.7867 102.224 22.26 102.077 21.66C101.931 21.0467 101.857 20.3933 101.857 19.7C101.857 18.9 101.951 18.12 102.137 17.36C102.337 16.5867 102.671 15.9 103.137 15.3C103.604 14.7 104.217 14.22 104.977 13.86C105.751 13.4867 106.711 13.3 107.857 13.3C109.537 13.3 110.737 13.7133 111.457 14.54C112.191 15.3533 112.557 16.5 112.557 17.98C112.557 18.3933 112.524 18.8533 112.457 19.36C112.404 19.8533 112.291 20.3467 112.117 20.84C111.957 21.3333 111.731 21.8133 111.437 22.28C111.157 22.7467 110.797 23.16 110.357 23.52C109.917 23.88 109.384 24.1667 108.757 24.38C108.144 24.5933 107.417 24.7 106.577 24.7ZM107.517 15.96C107.011 15.96 106.604 16.0933 106.297 16.36C106.004 16.6133 105.777 16.9267 105.617 17.3C105.471 17.66 105.371 18.0467 105.317 18.46C105.277 18.86 105.257 19.2 105.257 19.48C105.257 20.36 105.397 21.0067 105.677 21.42C105.957 21.8333 106.357 22.04 106.877 22.04C107.344 22.04 107.724 21.8933 108.017 21.6C108.324 21.3067 108.557 20.9533 108.717 20.54C108.891 20.1267 109.004 19.6933 109.057 19.24C109.124 18.7867 109.157 18.4067 109.157 18.1C109.157 17.4333 109.031 16.9133 108.777 16.54C108.537 16.1533 108.117 15.96 107.517 15.96ZM117.87 15.2C117.87 15.48 117.844 15.8733 117.79 16.38C117.75 16.8867 117.704 17.4133 117.65 17.96C117.61 18.5067 117.564 19.02 117.51 19.5C117.47 19.98 117.45 20.3267 117.45 20.54C117.45 21.0067 117.564 21.3733 117.79 21.64C118.03 21.8933 118.357 22.02 118.77 22.02C119.13 22.02 119.43 21.88 119.67 21.6C119.924 21.3067 120.124 20.9333 120.27 20.48C120.43 20.0133 120.557 19.4867 120.65 18.9C120.744 18.3133 120.81 17.72 120.85 17.12C120.904 16.52 120.944 15.94 120.97 15.38C121.01 14.8067 121.05 14.3133 121.09 13.9C121.104 13.7933 121.144 13.7 121.21 13.62C121.277 13.54 121.384 13.5 121.53 13.5H122.25C122.664 13.5 122.997 13.5467 123.25 13.64C123.517 13.72 123.724 13.84 123.87 14C124.03 14.16 124.137 14.36 124.19 14.6C124.257 14.8267 124.29 15.0933 124.29 15.4C124.29 15.6 124.277 15.8867 124.25 16.26C124.237 16.62 124.204 17.1267 124.15 17.78C124.097 18.42 124.03 19.24 123.95 20.24C123.884 21.2267 123.797 22.4533 123.69 23.92C123.664 24.2 123.63 24.3667 123.59 24.42C123.564 24.4733 123.457 24.5 123.27 24.5H122.49C122.09 24.5 121.757 24.4533 121.49 24.36C121.237 24.2667 121.03 24.1467 120.87 24C120.71 23.8533 120.597 23.68 120.53 23.48C120.464 23.28 120.424 23.0733 120.41 22.86C120.21 23.2067 119.984 23.5 119.73 23.74C119.49 23.98 119.237 24.1733 118.97 24.32C118.704 24.4533 118.43 24.5467 118.15 24.6C117.87 24.6667 117.597 24.7 117.33 24.7C116.824 24.7 116.37 24.62 115.97 24.46C115.57 24.2867 115.23 24.06 114.95 23.78C114.684 23.5 114.477 23.1667 114.33 22.78C114.184 22.3933 114.11 21.98 114.11 21.54C114.11 21.3667 114.117 21.0867 114.13 20.7C114.157 20.3 114.184 19.8533 114.21 19.36C114.25 18.8667 114.29 18.3467 114.33 17.8C114.37 17.24 114.404 16.7133 114.43 16.22C114.47 15.7267 114.504 15.2933 114.53 14.92C114.57 14.5467 114.597 14.28 114.61 14.12C114.637 13.88 114.69 13.72 114.77 13.64C114.85 13.5467 114.984 13.5 115.17 13.5H115.81C116.224 13.5 116.564 13.54 116.83 13.62C117.097 13.7 117.304 13.8133 117.45 13.96C117.61 14.1067 117.717 14.2867 117.77 14.5C117.837 14.7 117.87 14.9333 117.87 15.2ZM132.503 18.28C132.423 18.28 132.329 18.28 132.223 18.28C132.129 18.2667 132.036 18.2533 131.943 18.24C131.849 18.2133 131.769 18.1867 131.703 18.16C131.636 18.12 131.603 18.0733 131.603 18.02C131.603 17.8467 131.609 17.6867 131.623 17.54C131.636 17.3933 131.643 17.24 131.643 17.08C131.643 16.7867 131.603 16.5467 131.523 16.36C131.443 16.1733 131.283 16.08 131.043 16.08C130.669 16.08 130.356 16.3267 130.103 16.82C129.863 17.3 129.709 18.0267 129.643 19C129.616 19.4267 129.576 19.9133 129.523 20.46C129.483 20.9933 129.443 21.5133 129.403 22.02C129.363 22.5133 129.329 22.9533 129.303 23.34C129.276 23.7267 129.263 23.98 129.263 24.1C129.263 24.2333 129.216 24.3333 129.123 24.4C129.029 24.4667 128.929 24.5 128.823 24.5H128.103C127.689 24.5 127.349 24.46 127.083 24.38C126.829 24.2867 126.623 24.16 126.463 24C126.316 23.84 126.209 23.6467 126.143 23.42C126.089 23.18 126.063 22.9067 126.063 22.6C126.063 22.4 126.069 22.12 126.083 21.76C126.109 21.3867 126.149 20.88 126.203 20.24C126.256 19.5867 126.316 18.7667 126.383 17.78C126.463 16.78 126.556 15.5467 126.663 14.08C126.689 13.6933 126.829 13.5 127.083 13.5H127.863C128.236 13.5 128.549 13.54 128.803 13.62C129.056 13.7 129.263 13.8133 129.423 13.96C129.583 14.0933 129.696 14.2533 129.763 14.44C129.843 14.6267 129.896 14.82 129.923 15.02C130.083 14.7133 130.269 14.4533 130.483 14.24C130.709 14.0133 130.943 13.8333 131.183 13.7C131.423 13.5533 131.669 13.4533 131.923 13.4C132.176 13.3333 132.409 13.3 132.623 13.3C132.876 13.3 133.129 13.3467 133.383 13.44C133.649 13.5333 133.889 13.6733 134.103 13.86C134.316 14.0467 134.483 14.2867 134.603 14.58C134.736 14.8733 134.803 15.22 134.803 15.62C134.803 15.98 134.749 16.32 134.643 16.64C134.536 16.96 134.383 17.2467 134.183 17.5C133.983 17.74 133.736 17.9333 133.443 18.08C133.163 18.2133 132.849 18.28 132.503 18.28Z" fill="black"/>
<rect width="33" height="33" rx="5" fill="url(#paint0_linear_497_1100)"/>
<path d="M20.36 26C19.464 26 18.824 25.824 18.44 25.472C18.056 25.12 17.864 24.616 17.864 23.96C17.864 23.608 17.896 22.984 17.96 22.088C18.024 21.192 18.096 20.184 18.176 19.064H13.904L13.424 25.64C13.408 25.768 13.376 25.864 13.328 25.928C13.28 25.976 13.184 26 13.04 26H11.72C10.824 26 10.184 25.824 9.8 25.472C9.416 25.12 9.224 24.616 9.224 23.96C9.224 23.64 9.248 23.096 9.296 22.328C9.344 21.544 9.408 20.656 9.488 19.664C9.568 18.672 9.648 17.624 9.728 16.52C9.808 15.416 9.888 14.376 9.968 13.4C10.048 12.424 10.112 11.568 10.16 10.832C10.208 10.096 10.232 9.592 10.232 9.32C10.232 9.08 10.36 8.96 10.616 8.96H11.936C12.912 8.96 13.568 9.168 13.904 9.584C14.24 10 14.408 10.616 14.408 11.432C14.408 11.56 14.384 12.016 14.336 12.8C14.288 13.568 14.224 14.496 14.144 15.584H18.44C18.488 14.88 18.536 14.192 18.584 13.52C18.648 12.848 18.696 12.232 18.728 11.672C18.776 11.112 18.808 10.632 18.824 10.232C18.856 9.816 18.872 9.512 18.872 9.32C18.872 9.08 19 8.96 19.256 8.96H20.576C21.552 8.96 22.208 9.168 22.544 9.584C22.88 10 23.048 10.616 23.048 11.432C23.048 11.512 23.032 11.768 23 12.2C22.984 12.632 22.952 13.176 22.904 13.832C22.856 14.488 22.8 15.224 22.736 16.04C22.688 16.84 22.632 17.664 22.568 18.512C22.52 19.36 22.464 20.192 22.4 21.008C22.352 21.808 22.304 22.536 22.256 23.192C22.208 23.848 22.168 24.4 22.136 24.848C22.104 25.28 22.08 25.544 22.064 25.64C22.048 25.768 22.016 25.864 21.968 25.928C21.92 25.976 21.824 26 21.68 26H20.36Z" fill="#009963"/>
<defs>
<linearGradient id="paint0_linear_497_1100" x1="0" y1="16.5" x2="33" y2="16.5" gradientUnits="userSpaceOnUse">
<stop stop-color="#FBFBFB"/>
<stop offset="1" stop-color="#EEEFEF"/>
</linearGradient>
</defs>
</svg>
