<svg width="94" height="18" viewBox="0 0 94 18" fill="none" xmlns="http://www.w3.org/2000/svg">
<path d="M11.36 17.5C10.464 17.5 9.824 17.324 9.44 16.972C9.056 16.62 8.864 16.116 8.864 15.46C8.864 15.108 8.896 14.484 8.96 13.588C9.024 12.692 9.096 11.684 9.176 10.564H4.904L4.424 17.14C4.408 17.268 4.376 17.364 4.328 17.428C4.28 17.476 4.184 17.5 4.04 17.5H2.72C1.824 17.5 1.184 17.324 0.8 16.972C0.416 16.62 0.224 16.116 0.224 15.46C0.224 15.14 0.248 14.596 0.296 13.828C0.344 13.044 0.408 12.156 0.488 11.164C0.568 10.172 0.648 9.124 0.728 8.02C0.808 6.916 0.888 5.876 0.968 4.9C1.048 3.924 1.112 3.068 1.16 2.332C1.208 1.596 1.232 1.092 1.232 0.819999C1.232 0.579999 1.36 0.459999 1.616 0.459999H2.936C3.912 0.459999 4.568 0.667999 4.904 1.084C5.24 1.5 5.408 2.116 5.408 2.932C5.408 3.06 5.384 3.516 5.336 4.3C5.288 5.068 5.224 5.996 5.144 7.084H9.44C9.488 6.38 9.536 5.692 9.584 5.02C9.648 4.348 9.696 3.732 9.728 3.172C9.776 2.612 9.808 2.132 9.824 1.732C9.856 1.316 9.872 1.012 9.872 0.819999C9.872 0.579999 10 0.459999 10.256 0.459999H11.576C12.552 0.459999 13.208 0.667999 13.544 1.084C13.88 1.5 14.048 2.116 14.048 2.932C14.048 3.012 14.032 3.268 14 3.7C13.984 4.132 13.952 4.676 13.904 5.332C13.856 5.988 13.8 6.724 13.736 7.54C13.688 8.34 13.632 9.164 13.568 10.012C13.52 10.86 13.464 11.692 13.4 12.508C13.352 13.308 13.304 14.036 13.256 14.692C13.208 15.348 13.168 15.9 13.136 16.348C13.104 16.78 13.08 17.044 13.064 17.14C13.048 17.268 13.016 17.364 12.968 17.428C12.92 17.476 12.824 17.5 12.68 17.5H11.36ZM15.4359 14.548C15.4359 13.108 16.0839 11.98 17.3799 11.164C18.6759 10.348 20.5879 9.908 23.1159 9.844C23.1319 9.668 23.1399 9.524 23.1399 9.412C23.1559 9.284 23.1639 9.132 23.1639 8.956C23.1639 8.444 23.0679 8.036 22.8759 7.732C22.6839 7.428 22.2839 7.276 21.6759 7.276C21.3399 7.276 21.0679 7.324 20.8599 7.42C20.6519 7.516 20.4839 7.652 20.3559 7.828C20.2279 7.988 20.1239 8.188 20.0439 8.428C19.9639 8.668 19.8919 8.932 19.8279 9.22C19.7959 9.364 19.7239 9.46 19.6119 9.508C19.4999 9.54 19.3239 9.556 19.0839 9.556C17.4519 9.556 16.6359 8.94 16.6359 7.708C16.6359 7.212 16.7479 6.74 16.9719 6.292C17.2119 5.844 17.5559 5.46 18.0039 5.14C18.4679 4.804 19.0439 4.54 19.7319 4.348C20.4199 4.156 21.2199 4.06 22.1319 4.06C23.9079 4.06 25.1959 4.428 25.9959 5.164C26.7959 5.9 27.1959 6.94 27.1959 8.284C27.1959 8.46 27.1719 8.78 27.1239 9.244C27.0919 9.692 27.0439 10.172 26.9799 10.684C26.9319 11.18 26.8839 11.652 26.8359 12.1C26.8039 12.548 26.7879 12.86 26.7879 13.036C26.7879 13.436 26.8599 13.724 27.0039 13.9C27.1479 14.06 27.3079 14.172 27.4839 14.236C27.6759 14.3 27.8439 14.348 27.9879 14.38C28.1319 14.412 28.2039 14.492 28.2039 14.62C28.2039 14.972 28.1559 15.332 28.0599 15.7C27.9639 16.068 27.8039 16.404 27.5799 16.708C27.3719 17.012 27.0759 17.26 26.6919 17.452C26.3239 17.644 25.8679 17.74 25.3239 17.74C24.5559 17.74 23.9799 17.556 23.5959 17.188C23.2119 16.82 22.9559 16.308 22.8279 15.652C22.4439 16.212 21.9399 16.7 21.3159 17.116C20.7079 17.532 19.9079 17.74 18.9159 17.74C18.4359 17.74 17.9799 17.684 17.5479 17.572C17.1319 17.46 16.7639 17.276 16.4439 17.02C16.1399 16.764 15.8919 16.436 15.6999 16.036C15.5239 15.62 15.4359 15.124 15.4359 14.548ZM22.8999 11.812C22.4839 11.812 22.0759 11.844 21.6759 11.908C21.2759 11.972 20.9159 12.076 20.5959 12.22C20.2919 12.348 20.0439 12.524 19.8519 12.748C19.6599 12.972 19.5639 13.244 19.5639 13.564C19.5639 13.932 19.6759 14.188 19.8999 14.332C20.1399 14.476 20.3959 14.548 20.6679 14.548C20.9239 14.548 21.1799 14.492 21.4359 14.38C21.6919 14.268 21.9159 14.1 22.1079 13.876C22.3159 13.636 22.4919 13.348 22.6359 13.012C22.7799 12.676 22.8679 12.276 22.8999 11.812ZM37.8633 15.388C37.8633 15.036 37.8873 14.58 37.9353 14.02C37.9993 13.444 38.0553 12.844 38.1033 12.22C38.1673 11.58 38.2233 10.964 38.2713 10.372C38.3353 9.78 38.3673 9.284 38.3673 8.884C38.3673 8.468 38.2633 8.1 38.0553 7.78C37.8633 7.444 37.4793 7.276 36.9033 7.276C36.3433 7.276 35.8793 7.412 35.5113 7.684C35.1433 7.956 34.8313 8.452 34.5753 9.172C34.3353 9.892 34.1353 10.884 33.9753 12.148C33.8153 13.412 33.6633 15.036 33.5193 17.02C33.5033 17.212 33.4633 17.34 33.3993 17.404C33.3353 17.468 33.1993 17.5 32.9913 17.5H32.1273C31.6313 17.5 31.2233 17.452 30.9033 17.356C30.5993 17.244 30.3513 17.092 30.1593 16.9C29.9833 16.708 29.8553 16.476 29.7753 16.204C29.7113 15.916 29.6793 15.588 29.6793 15.22C29.6793 14.98 29.6873 14.644 29.7033 14.212C29.7353 13.764 29.7833 13.156 29.8473 12.388C29.9113 11.604 29.9833 10.62 30.0633 9.436C30.1593 8.236 30.2713 6.756 30.3993 4.996C30.4153 4.644 30.4553 4.436 30.5193 4.372C30.5673 4.324 30.6953 4.3 30.9033 4.3H31.8393C32.3193 4.3 32.7113 4.356 33.0153 4.468C33.3353 4.58 33.5913 4.732 33.7833 4.924C33.9753 5.1 34.1113 5.316 34.1913 5.572C34.2713 5.812 34.3193 6.06 34.3353 6.316C34.8313 5.468 35.3993 4.884 36.0393 4.564C36.6793 4.228 37.4793 4.06 38.4393 4.06C39.1113 4.06 39.6953 4.132 40.1913 4.276C40.6873 4.42 41.0953 4.668 41.4153 5.02C41.7513 5.356 41.9993 5.804 42.1593 6.364C42.3193 6.908 42.3993 7.588 42.3993 8.404C42.3993 8.66 42.3833 9.028 42.3513 9.508C42.3193 9.988 42.2793 10.516 42.2313 11.092C42.1833 11.652 42.1273 12.244 42.0633 12.868C42.0153 13.476 41.9673 14.044 41.9193 14.572C41.8713 15.1 41.8313 15.564 41.7993 15.964C41.7673 16.364 41.7513 16.628 41.7513 16.756C41.7513 17.108 41.7113 17.324 41.6313 17.404C41.5513 17.468 41.3753 17.5 41.1033 17.5H40.3353C39.8233 17.5 39.4073 17.452 39.0873 17.356C38.7673 17.26 38.5193 17.124 38.3433 16.948C38.1673 16.772 38.0393 16.556 37.9593 16.3C37.8953 16.028 37.8633 15.724 37.8633 15.388ZM49.6987 7.54C49.6507 8.148 49.5947 8.748 49.5307 9.34C49.4827 9.932 49.4347 10.492 49.3867 11.02C49.3387 11.548 49.2987 12.02 49.2667 12.436C49.2507 12.852 49.2427 13.172 49.2427 13.396C49.2427 13.812 49.2907 14.092 49.3867 14.236C49.4827 14.364 49.6427 14.428 49.8667 14.428C50.0427 14.428 50.1947 14.396 50.3227 14.332C50.4507 14.268 50.5707 14.196 50.6827 14.116C50.7947 14.036 50.8907 13.964 50.9707 13.9C51.0667 13.836 51.1707 13.804 51.2827 13.804C51.3947 13.804 51.4987 13.868 51.5947 13.996C51.6907 14.124 51.7387 14.42 51.7387 14.884C51.7387 15.764 51.4987 16.46 51.0187 16.972C50.5387 17.484 49.7147 17.74 48.5467 17.74C47.3947 17.74 46.5387 17.476 45.9787 16.948C45.4347 16.404 45.1627 15.58 45.1627 14.476C45.1627 14.236 45.1707 13.956 45.1867 13.636C45.2187 13.3 45.2587 12.868 45.3067 12.34C45.3547 11.812 45.4107 11.164 45.4747 10.396C45.5547 9.628 45.6347 8.676 45.7147 7.54H44.4427C44.3147 7.54 44.2347 7.516 44.2027 7.468C44.1867 7.404 44.1787 7.316 44.1787 7.204L44.2507 5.98C44.2667 5.772 44.2907 5.572 44.3227 5.38C44.3707 5.172 44.4507 4.988 44.5627 4.828C44.6907 4.668 44.8667 4.54 45.0907 4.444C45.3147 4.348 45.6107 4.3 45.9787 4.3C46.0907 4.012 46.2187 3.668 46.3627 3.268C46.5067 2.868 46.6507 2.484 46.7947 2.116C46.9387 1.732 47.0747 1.412 47.2027 1.156C47.3467 0.899999 47.4747 0.771999 47.5867 0.771999H48.2827C48.9547 0.771999 49.4187 0.98 49.6747 1.396C49.9307 1.812 50.0587 2.308 50.0587 2.884C50.0587 3.204 50.0347 3.676 49.9867 4.3H52.5067C52.7627 4.3 52.8907 4.412 52.8907 4.636L52.7947 5.932C52.7627 6.412 52.6267 6.804 52.3867 7.108C52.1627 7.396 51.6907 7.54 50.9707 7.54H49.6987ZM59.3366 17.74C58.2326 17.74 57.3126 17.588 56.5766 17.284C55.8566 16.964 55.2806 16.532 54.8486 15.988C54.4166 15.444 54.1126 14.812 53.9366 14.092C53.7606 13.356 53.6726 12.572 53.6726 11.74C53.6726 10.78 53.7846 9.844 54.0086 8.932C54.2486 8.004 54.6486 7.18 55.2086 6.46C55.7686 5.74 56.5046 5.164 57.4166 4.732C58.3446 4.284 59.4966 4.06 60.8726 4.06C62.8886 4.06 64.3286 4.556 65.1926 5.548C66.0726 6.524 66.5126 7.9 66.5126 9.676C66.5126 10.172 66.4726 10.724 66.3926 11.332C66.3286 11.924 66.1926 12.516 65.9846 13.108C65.7926 13.7 65.5206 14.276 65.1686 14.836C64.8326 15.396 64.4006 15.892 63.8726 16.324C63.3446 16.756 62.7046 17.1 61.9526 17.356C61.2166 17.612 60.3446 17.74 59.3366 17.74ZM60.4646 7.252C59.8566 7.252 59.3686 7.412 59.0006 7.732C58.6486 8.036 58.3766 8.412 58.1846 8.86C58.0086 9.292 57.8886 9.756 57.8246 10.252C57.7766 10.732 57.7526 11.14 57.7526 11.476C57.7526 12.532 57.9206 13.308 58.2566 13.804C58.5926 14.3 59.0726 14.548 59.6966 14.548C60.2566 14.548 60.7126 14.372 61.0646 14.02C61.4326 13.668 61.7126 13.244 61.9046 12.748C62.1126 12.252 62.2486 11.732 62.3126 11.188C62.3926 10.644 62.4326 10.188 62.4326 9.82C62.4326 9.02 62.2806 8.396 61.9766 7.948C61.6886 7.484 61.1846 7.252 60.4646 7.252ZM72.8883 6.34C72.8883 6.676 72.8563 7.148 72.7923 7.756C72.7443 8.364 72.6883 8.996 72.6243 9.652C72.5763 10.308 72.5203 10.924 72.4563 11.5C72.4083 12.076 72.3843 12.492 72.3843 12.748C72.3843 13.308 72.5203 13.748 72.7923 14.068C73.0803 14.372 73.4723 14.524 73.9683 14.524C74.4003 14.524 74.7603 14.356 75.0483 14.02C75.3523 13.668 75.5923 13.22 75.7683 12.676C75.9603 12.116 76.1123 11.484 76.2243 10.78C76.3363 10.076 76.4163 9.364 76.4643 8.644C76.5283 7.924 76.5763 7.228 76.6083 6.556C76.6563 5.868 76.7043 5.276 76.7523 4.78C76.7683 4.652 76.8163 4.54 76.8963 4.444C76.9763 4.348 77.1043 4.3 77.2803 4.3H78.1443C78.6403 4.3 79.0403 4.356 79.3443 4.468C79.6643 4.564 79.9123 4.708 80.0883 4.9C80.2803 5.092 80.4083 5.332 80.4723 5.62C80.5523 5.892 80.5923 6.212 80.5923 6.58C80.5923 6.82 80.5763 7.164 80.5443 7.612C80.5283 8.044 80.4883 8.652 80.4243 9.436C80.3603 10.204 80.2803 11.188 80.1843 12.388C80.1043 13.572 80.0003 15.044 79.8723 16.804C79.8403 17.14 79.8003 17.34 79.7523 17.404C79.7203 17.468 79.5923 17.5 79.3683 17.5H78.4323C77.9523 17.5 77.5523 17.444 77.2323 17.332C76.9283 17.22 76.6803 17.076 76.4883 16.9C76.2963 16.724 76.1603 16.516 76.0803 16.276C76.0003 16.036 75.9523 15.788 75.9363 15.532C75.6963 15.948 75.4243 16.3 75.1203 16.588C74.8323 16.876 74.5283 17.108 74.2083 17.284C73.8883 17.444 73.5603 17.556 73.2243 17.62C72.8883 17.7 72.5603 17.74 72.2403 17.74C71.6323 17.74 71.0883 17.644 70.6083 17.452C70.1283 17.244 69.7203 16.972 69.3843 16.636C69.0643 16.3 68.8163 15.9 68.6403 15.436C68.4643 14.972 68.3763 14.476 68.3763 13.948C68.3763 13.74 68.3843 13.404 68.4003 12.94C68.4323 12.46 68.4643 11.924 68.4963 11.332C68.5443 10.74 68.5923 10.116 68.6403 9.46C68.6883 8.788 68.7283 8.156 68.7603 7.564C68.8083 6.972 68.8483 6.452 68.8803 6.004C68.9283 5.556 68.9603 5.236 68.9763 5.044C69.0083 4.756 69.0723 4.564 69.1683 4.468C69.2643 4.356 69.4243 4.3 69.6483 4.3H70.4163C70.9123 4.3 71.3203 4.348 71.6403 4.444C71.9603 4.54 72.2083 4.676 72.3843 4.852C72.5763 5.028 72.7043 5.244 72.7683 5.5C72.8483 5.74 72.8883 6.02 72.8883 6.34ZM90.4469 10.036C90.3509 10.036 90.2389 10.036 90.1109 10.036C89.9989 10.02 89.8869 10.004 89.7749 9.988C89.6629 9.956 89.5669 9.924 89.4869 9.892C89.4069 9.844 89.3669 9.788 89.3669 9.724C89.3669 9.516 89.3749 9.324 89.3909 9.148C89.4069 8.972 89.4149 8.788 89.4149 8.596C89.4149 8.244 89.3669 7.956 89.2709 7.732C89.1749 7.508 88.9829 7.396 88.6949 7.396C88.2469 7.396 87.8709 7.692 87.5669 8.284C87.2789 8.86 87.0949 9.732 87.0149 10.9C86.9829 11.412 86.9349 11.996 86.8709 12.652C86.8229 13.292 86.7749 13.916 86.7269 14.524C86.6789 15.116 86.6389 15.644 86.6069 16.108C86.5749 16.572 86.5589 16.876 86.5589 17.02C86.5589 17.18 86.5029 17.3 86.3909 17.38C86.2789 17.46 86.1589 17.5 86.0309 17.5H85.1669C84.6709 17.5 84.2629 17.452 83.9429 17.356C83.6389 17.244 83.3909 17.092 83.1989 16.9C83.0229 16.708 82.8949 16.476 82.8149 16.204C82.7509 15.916 82.7189 15.588 82.7189 15.22C82.7189 14.98 82.7269 14.644 82.7429 14.212C82.7749 13.764 82.8229 13.156 82.8869 12.388C82.9509 11.604 83.0229 10.62 83.1029 9.436C83.1989 8.236 83.3109 6.756 83.4389 4.996C83.4709 4.532 83.6389 4.3 83.9429 4.3H84.8789C85.3269 4.3 85.7029 4.348 86.0069 4.444C86.3109 4.54 86.5589 4.676 86.7509 4.852C86.9429 5.012 87.0789 5.204 87.1589 5.428C87.2549 5.652 87.3189 5.884 87.3509 6.124C87.5429 5.756 87.7669 5.444 88.0229 5.188C88.2949 4.916 88.5749 4.7 88.8629 4.54C89.1509 4.364 89.4469 4.244 89.7509 4.18C90.0549 4.1 90.3349 4.06 90.5909 4.06C90.8949 4.06 91.1989 4.116 91.5029 4.228C91.8229 4.34 92.1109 4.508 92.3669 4.732C92.6229 4.956 92.8229 5.244 92.9669 5.596C93.1269 5.948 93.2069 6.364 93.2069 6.844C93.2069 7.276 93.1429 7.684 93.0149 8.068C92.8869 8.452 92.7029 8.796 92.4629 9.1C92.2229 9.388 91.9269 9.62 91.5749 9.796C91.2389 9.956 90.8629 10.036 90.4469 10.036Z" fill="black"/>
</svg>
