<svg width="33" height="33" viewBox="0 0 33 33" fill="none" xmlns="http://www.w3.org/2000/svg">
<rect width="33" height="33" rx="5" fill="url(#paint0_linear_410_1100)"/>
<path d="M20.36 26C19.464 26 18.824 25.824 18.44 25.472C18.056 25.12 17.864 24.616 17.864 23.96C17.864 23.608 17.896 22.984 17.96 22.088C18.024 21.192 18.096 20.184 18.176 19.064H13.904L13.424 25.64C13.408 25.768 13.376 25.864 13.328 25.928C13.28 25.976 13.184 26 13.04 26H11.72C10.824 26 10.184 25.824 9.8 25.472C9.416 25.12 9.224 24.616 9.224 23.96C9.224 23.64 9.248 23.096 9.296 22.328C9.344 21.544 9.408 20.656 9.488 19.664C9.568 18.672 9.648 17.624 9.728 16.52C9.808 15.416 9.888 14.376 9.968 13.4C10.048 12.424 10.112 11.568 10.16 10.832C10.208 10.096 10.232 9.592 10.232 9.32C10.232 9.08 10.36 8.96 10.616 8.96H11.936C12.912 8.96 13.568 9.168 13.904 9.584C14.24 10 14.408 10.616 14.408 11.432C14.408 11.56 14.384 12.016 14.336 12.8C14.288 13.568 14.224 14.496 14.144 15.584H18.44C18.488 14.88 18.536 14.192 18.584 13.52C18.648 12.848 18.696 12.232 18.728 11.672C18.776 11.112 18.808 10.632 18.824 10.232C18.856 9.816 18.872 9.512 18.872 9.32C18.872 9.08 19 8.96 19.256 8.96H20.576C21.552 8.96 22.208 9.168 22.544 9.584C22.88 10 23.048 10.616 23.048 11.432C23.048 11.512 23.032 11.768 23 12.2C22.984 12.632 22.952 13.176 22.904 13.832C22.856 14.488 22.8 15.224 22.736 16.04C22.688 16.84 22.632 17.664 22.568 18.512C22.52 19.36 22.464 20.192 22.4 21.008C22.352 21.808 22.304 22.536 22.256 23.192C22.208 23.848 22.168 24.4 22.136 24.848C22.104 25.28 22.08 25.544 22.064 25.64C22.048 25.768 22.016 25.864 21.968 25.928C21.92 25.976 21.824 26 21.68 26H20.36Z" fill="#009963"/>
<defs>
<linearGradient id="paint0_linear_410_1100" x1="0" y1="16.5" x2="33" y2="16.5" gradientUnits="userSpaceOnUse">
<stop stop-color="#FBFBFB"/>
<stop offset="1" stop-color="#EEEFEF"/>
</linearGradient>
</defs>
</svg>
